STARTFONT 2.1
FONT -FontForge-Helvetica Neue-Book-R-Normal--24-240-75-75-P-133-ISO10646-1
SIZE 24 75 75
FONTBOUNDINGBOX 34 28 -8 -5
COMMENT "Generated by fontforge, http://fontforge.sourceforge.net"
COMMENT "Copyright (c) 1981, 1982, 1983, 1989 and 1993, Linotype Library GmbH or its affiliated Linotype-Hell companies. All rights reserved."
COMMENT ""
COMMENT "The digitally encoded machine readable software for producing the Typefaces licensed to you is now the property of Heidelberger Druckmaschinen AG and its licensors, and may not be reproduced, used, displayed, modified, disclosed or transferred without the express written approval of Heidelberger Druckmaschinen AG."
COMMENT ""
COMMENT "Copyright (c) 1988, 1990, 1993 Adobe Systems Incorporated. All Rights Reserved."
STARTPROPERTIES 40
FOUNDRY "FontForge"
FAMILY_NAME "Helvetica Neue"
WEIGHT_NAME "Book"
SLANT "R"
SETWIDTH_NAME "Normal"
ADD_STYLE_NAME ""
PIXEL_SIZE 24
POINT_SIZE 240
RESOLUTION_X 75
RESOLUTION_Y 75
SPACING "P"
AVERAGE_WIDTH 133
CHARSET_REGISTRY "ISO10646"
CHARSET_ENCODING "1"
FONTNAME_REGISTRY ""
CHARSET_COLLECTIONS "ISO8859-5 ISO10646-1"
FONT_NAME "HelveticaNeue"
FACE_NAME "Helvetica Neue"
COPYRIGHT "Copyright (c) 1981, 1982, 1983, 1989 and 1993, Linotype Library GmbH or its affiliated Linotype-Hell companies. All rights reserved."
FONT_VERSION "6.1d8e1"
FONT_ASCENT 19
FONT_DESCENT 5
UNDERLINE_POSITION -3
UNDERLINE_THICKNESS 2
X_HEIGHT 11
CAP_HEIGHT 16
RAW_ASCENT 800
RAW_DESCENT 200
NORM_SPACE 7
RELATIVE_WEIGHT 40
RELATIVE_SETWIDTH 50
SUPERSCRIPT_X 0
SUPERSCRIPT_Y 6
SUPERSCRIPT_SIZE 4
SUBSCRIPT_X 0
SUBSCRIPT_Y 6
SUBSCRIPT_SIZE 4
FIGURE_WIDTH 13
AVG_LOWERCASE_WIDTH 130
AVG_UPPERCASE_WIDTH 166
ENDPROPERTIES
CHARS 464
STARTCHAR controlBS
ENCODING 8
SWIDTH 0 0
DWIDTH 0 0
BBX 1 1 0 0
BITMAP
00
ENDCHAR
STARTCHAR controlHT
ENCODING 9
SWIDTH 278 0
DWIDTH 7 0
BBX 1 1 0 0
BITMAP
00
ENDCHAR
STARTCHAR controlCR
ENCODING 13
SWIDTH 278 0
DWIDTH 7 0
BBX 1 1 0 0
BITMAP
00
ENDCHAR
STARTCHAR controlGS
ENCODING 29
SWIDTH 0 0
DWIDTH 0 0
BBX 1 1 0 0
BITMAP
00
ENDCHAR
STARTCHAR space
ENCODING 32
SWIDTH 278 0
DWIDTH 7 0
BBX 1 1 0 0
BITMAP
00
ENDCHAR
STARTCHAR exclam
ENCODING 33
SWIDTH 259 0
DWIDTH 6 0
BBX 2 17 2 0
BITMAP
C0
C0
C0
C0
C0
C0
C0
C0
C0
C0
C0
C0
40
00
C0
C0
C0
ENDCHAR
STARTCHAR quotedbl
ENCODING 34
SWIDTH 426 0
DWIDTH 10 0
BBX 5 6 3 11
BITMAP
98
98
98
98
98
98
ENDCHAR
STARTCHAR numbersign
ENCODING 35
SWIDTH 556 0
DWIDTH 13 0
BBX 12 17 1 0
BITMAP
08C0
08C0
18C0
18C0
1880
FFF0
FFF0
1180
1180
3180
FFE0
FFE0
3100
3100
2300
2300
6300
ENDCHAR
STARTCHAR dollar
ENCODING 36
SWIDTH 556 0
DWIDTH 13 0
BBX 12 21 1 -2
BITMAP
0400
0400
3F80
77C0
E4C0
C460
C400
E400
7400
3E00
0FC0
05E0
0460
C470
C470
C460
74E0
7FC0
1F80
0400
0400
ENDCHAR
STARTCHAR percent
ENCODING 37
SWIDTH 1000 0
DWIDTH 24 0
BBX 20 18 2 -1
BITMAP
3C0180
660300
C30300
C30600
C30C00
C31C00
C31800
663000
3C63C0
006660
00CC30
018C30
038C30
030C30
060C20
0C0660
0C03C0
180000
ENDCHAR
STARTCHAR ampersand
ENCODING 38
SWIDTH 630 0
DWIDTH 15 0
BBX 14 17 1 0
BITMAP
0F00
1F80
39C0
30C0
30C0
3980
1B00
0E00
3600
6330
C1B0
C0F0
C0E0
C0F0
E1F8
7F98
3F0C
ENDCHAR
STARTCHAR quotesingle
ENCODING 39
SWIDTH 278 0
DWIDTH 7 0
BBX 1 6 3 11
BITMAP
80
80
80
80
80
80
ENDCHAR
STARTCHAR parenleft
ENCODING 40
SWIDTH 259 0
DWIDTH 6 0
BBX 5 23 1 -5
BITMAP
08
18
30
30
60
60
60
60
C0
C0
C0
C0
C0
C0
C0
60
60
60
20
30
30
18
08
ENDCHAR
STARTCHAR parenright
ENCODING 41
SWIDTH 259 0
DWIDTH 6 0
BBX 5 23 0 -5
BITMAP
C0
40
60
60
30
30
30
18
18
18
18
18
18
18
18
18
30
30
30
20
60
40
C0
ENDCHAR
STARTCHAR asterisk
ENCODING 42
SWIDTH 352 0
DWIDTH 8 0
BBX 7 7 1 10
BITMAP
10
10
D6
7C
38
68
4C
ENDCHAR
STARTCHAR plus
ENCODING 43
SWIDTH 600 0
DWIDTH 14 0
BBX 12 12 1 0
BITMAP
0600
0600
0600
0600
0600
FFF0
FFF0
0600
0600
0600
0600
0600
ENDCHAR
STARTCHAR comma
ENCODING 44
SWIDTH 278 0
DWIDTH 7 0
BBX 3 7 2 -4
BITMAP
E0
E0
E0
60
40
C0
80
ENDCHAR
STARTCHAR hyphen
ENCODING 45
SWIDTH 389 0
DWIDTH 9 0
BBX 7 2 1 6
BITMAP
FE
FE
ENDCHAR
STARTCHAR period
ENCODING 46
SWIDTH 278 0
DWIDTH 7 0
BBX 3 3 2 0
BITMAP
E0
E0
E0
ENDCHAR
STARTCHAR slash
ENCODING 47
SWIDTH 333 0
DWIDTH 8 0
BBX 8 18 0 0
BITMAP
03
03
02
06
06
04
0C
08
18
18
10
30
20
60
60
40
C0
C0
ENDCHAR
STARTCHAR zero
ENCODING 48
SWIDTH 556 0
DWIDTH 13 0
BBX 11 17 1 0
BITMAP
1F00
3FC0
71C0
60E0
E060
C060
C060
C060
C060
C060
C060
C060
E060
60E0
71C0
3FC0
1F00
ENDCHAR
STARTCHAR one
ENCODING 49
SWIDTH 556 0
DWIDTH 13 0
BBX 7 17 2 0
BITMAP
06
0E
1E
FE
FE
0E
0E
0E
0E
0E
0E
0E
0E
0E
0E
0E
0E
ENDCHAR
STARTCHAR two
ENCODING 50
SWIDTH 556 0
DWIDTH 13 0
BBX 11 17 1 0
BITMAP
1F00
3FC0
71C0
E0E0
C060
C060
00E0
00C0
0180
0700
0E00
3800
7000
6000
C000
FFE0
FFE0
ENDCHAR
STARTCHAR three
ENCODING 51
SWIDTH 556 0
DWIDTH 13 0
BBX 11 17 1 0
BITMAP
1F00
3F80
71C0
E0C0
C0E0
C0C0
01C0
0F80
0FC0
00E0
0060
C060
C060
C060
61E0
7FC0
1F00
ENDCHAR
STARTCHAR four
ENCODING 52
SWIDTH 556 0
DWIDTH 13 0
BBX 11 17 1 0
BITMAP
0180
0380
0380
0780
0D80
0980
1980
3180
6180
4180
C180
FFE0
FFE0
0180
0180
0180
0180
ENDCHAR
STARTCHAR five
ENCODING 53
SWIDTH 556 0
DWIDTH 13 0
BBX 11 17 1 0
BITMAP
3FC0
3FC0
6000
6000
6000
6000
6F00
7FC0
E1C0
C0E0
0060
0060
C060
C0E0
61C0
7FC0
1F00
ENDCHAR
STARTCHAR six
ENCODING 54
SWIDTH 556 0
DWIDTH 13 0
BBX 11 17 1 0
BITMAP
0F80
3FC0
70E0
6060
E000
C000
CF80
DFC0
F0E0
E060
C060
C060
C060
6060
70E0
3FC0
1F00
ENDCHAR
STARTCHAR seven
ENCODING 55
SWIDTH 556 0
DWIDTH 13 0
BBX 11 17 1 0
BITMAP
FFE0
FFE0
0060
00C0
0180
0300
0300
0600
0600
0C00
0C00
1C00
1800
1800
1800
1800
3800
ENDCHAR
STARTCHAR eight
ENCODING 56
SWIDTH 556 0
DWIDTH 13 0
BBX 11 17 1 0
BITMAP
1F00
3FC0
71C0
60E0
6060
60E0
70C0
3F80
3FC0
70E0
E060
C060
C060
E060
70E0
7FC0
1F00
ENDCHAR
STARTCHAR nine
ENCODING 57
SWIDTH 556 0
DWIDTH 13 0
BBX 11 17 1 0
BITMAP
1F00
7F80
61C0
C0E0
C060
C060
C060
E0E0
71E0
7FE0
1E60
0060
0060
C0C0
61C0
7F80
1F00
ENDCHAR
STARTCHAR colon
ENCODING 58
SWIDTH 278 0
DWIDTH 7 0
BBX 3 13 2 0
BITMAP
E0
E0
E0
00
00
00
00
00
00
00
E0
E0
E0
ENDCHAR
STARTCHAR semicolon
ENCODING 59
SWIDTH 278 0
DWIDTH 7 0
BBX 3 17 2 -4
BITMAP
E0
E0
E0
00
00
00
00
00
00
00
00
E0
E0
60
60
40
80
ENDCHAR
STARTCHAR less
ENCODING 60
SWIDTH 600 0
DWIDTH 14 0
BBX 12 12 1 0
BITMAP
0010
0070
01C0
0F00
3C00
E000
E000
3C00
0F00
01C0
0070
0010
ENDCHAR
STARTCHAR equal
ENCODING 61
SWIDTH 600 0
DWIDTH 14 0
BBX 12 7 1 3
BITMAP
FFF0
FFF0
0000
0000
0000
FFF0
FFF0
ENDCHAR
STARTCHAR greater
ENCODING 62
SWIDTH 600 0
DWIDTH 14 0
BBX 12 12 1 0
BITMAP
8000
F000
3C00
0700
01C0
0070
0070
01C0
0700
3C00
F000
8000
ENDCHAR
STARTCHAR question
ENCODING 63
SWIDTH 556 0
DWIDTH 13 0
BBX 11 18 1 0
BITMAP
1F00
3F80
71C0
60E0
E060
C060
00E0
00C0
0180
0300
0600
0600
0600
0600
0000
0E00
0E00
0E00
ENDCHAR
STARTCHAR at
ENCODING 64
SWIDTH 800 0
DWIDTH 19 0
BBX 17 17 1 0
BITMAP
03F000
0C1C00
180600
31E300
63ED80
463980
CC1980
CC1980
C81180
D83180
D83100
4C7300
6FB600
273800
180380
0C0C00
03F000
ENDCHAR
STARTCHAR A
ENCODING 65
SWIDTH 648 0
DWIDTH 16 0
BBX 16 17 0 0
BITMAP
0380
03C0
03C0
06C0
0660
0C60
0C70
0C30
1830
1838
3FF8
3FFC
300C
700C
600E
E006
C007
ENDCHAR
STARTCHAR B
ENCODING 66
SWIDTH 685 0
DWIDTH 16 0
BBX 13 17 2 0
BITMAP
FFC0
FFF0
C070
C038
C038
C030
C070
FFE0
FFF0
C038
C018
C018
C018
C018
C038
FFF0
FFE0
ENDCHAR
STARTCHAR C
ENCODING 67
SWIDTH 722 0
DWIDTH 17 0
BBX 15 18 1 0
BITMAP
07E0
1FF8
3C3C
700E
6006
6006
E000
C000
C000
C000
C000
E006
E006
600E
700C
3C3C
1FF8
07E0
ENDCHAR
STARTCHAR D
ENCODING 68
SWIDTH 704 0
DWIDTH 17 0
BBX 14 17 2 0
BITMAP
FF80
FFE0
C070
C038
C018
C01C
C00C
C00C
C00C
C00C
C01C
C01C
C018
C038
C070
FFE0
FF80
ENDCHAR
STARTCHAR E
ENCODING 69
SWIDTH 611 0
DWIDTH 15 0
BBX 12 17 2 0
BITMAP
FFF0
FFF0
C000
C000
C000
C000
C000
FFE0
FFE0
C000
C000
C000
C000
C000
C000
FFF0
FFF0
ENDCHAR
STARTCHAR F
ENCODING 70
SWIDTH 574 0
DWIDTH 14 0
BBX 11 17 2 0
BITMAP
FFE0
FFE0
C000
C000
C000
C000
C000
FFC0
FFC0
C000
C000
C000
C000
C000
C000
C000
C000
ENDCHAR
STARTCHAR G
ENCODING 71
SWIDTH 759 0
DWIDTH 18 0
BBX 16 18 1 0
BITMAP
07E0
1FF8
3C1C
300E
7006
6007
E000
C000
C000
C0FF
C0FF
E003
6003
7007
700F
3C1F
1FFB
07E3
ENDCHAR
STARTCHAR H
ENCODING 72
SWIDTH 722 0
DWIDTH 17 0
BBX 13 17 2 0
BITMAP
C018
C018
C018
C018
C018
C018
C018
FFF8
FFF8
C018
C018
C018
C018
C018
C018
C018
C018
ENDCHAR
STARTCHAR I
ENCODING 73
SWIDTH 259 0
DWIDTH 6 0
BBX 2 17 2 0
BITMAP
C0
C0
C0
C0
C0
C0
C0
C0
C0
C0
C0
C0
C0
C0
C0
C0
C0
ENDCHAR
STARTCHAR J
ENCODING 74
SWIDTH 519 0
DWIDTH 12 0
BBX 10 17 1 0
BITMAP
01C0
01C0
01C0
01C0
01C0
01C0
01C0
01C0
01C0
01C0
01C0
C1C0
C1C0
C180
E380
7F80
3E00
ENDCHAR
STARTCHAR K
ENCODING 75
SWIDTH 667 0
DWIDTH 16 0
BBX 14 17 2 0
BITMAP
C03C
C070
C0E0
C1C0
C380
C700
CE00
DE00
FF00
F380
E180
C1C0
C0E0
C060
C070
C038
C01C
ENDCHAR
STARTCHAR L
ENCODING 76
SWIDTH 556 0
DWIDTH 13 0
BBX 11 17 2 0
BITMAP
C000
C000
C000
C000
C000
C000
C000
C000
C000
C000
C000
C000
C000
C000
C000
FFE0
FFE0
ENDCHAR
STARTCHAR M
ENCODING 77
SWIDTH 871 0
DWIDTH 21 0
BBX 17 17 2 0
BITMAP
E00380
F00780
F00780
F00780
D80D80
D80D80
DC1980
CC1980
CC1980
C63180
C63180
C67180
C36180
C36180
C1C180
C1C180
C1C180
ENDCHAR
STARTCHAR N
ENCODING 78
SWIDTH 722 0
DWIDTH 17 0
BBX 14 17 2 0
BITMAP
E01C
E01C
F01C
F81C
D81C
DC1C
CE1C
C61C
C71C
C39C
C19C
C1DC
C0DC
C07C
C07C
C03C
C01C
ENDCHAR
STARTCHAR O
ENCODING 79
SWIDTH 760 0
DWIDTH 18 0
BBX 16 18 1 0
BITMAP
07E0
1FF8
3C3C
700E
6006
E007
E003
C003
C003
C003
C003
E003
E007
6006
700E
3C1C
1FF8
07E0
ENDCHAR
STARTCHAR P
ENCODING 80
SWIDTH 648 0
DWIDTH 16 0
BBX 13 17 2 0
BITMAP
FFC0
FFE0
C070
C030
C038
C038
C030
C070
FFE0
FFC0
C000
C000
C000
C000
C000
C000
C000
ENDCHAR
STARTCHAR Q
ENCODING 81
SWIDTH 760 0
DWIDTH 18 0
BBX 16 19 1 -1
BITMAP
07E0
1FF8
3C3C
700E
6006
E007
E003
C003
C003
C003
C003
E003
E007
6066
707E
3C3C
1FFE
07E7
0002
ENDCHAR
STARTCHAR R
ENCODING 82
SWIDTH 685 0
DWIDTH 16 0
BBX 14 17 2 0
BITMAP
FFE0
FFF0
C038
C018
C018
C018
C018
C070
FFE0
FFE0
C070
C038
C038
C018
C018
C018
C01C
ENDCHAR
STARTCHAR S
ENCODING 83
SWIDTH 648 0
DWIDTH 16 0
BBX 14 18 1 0
BITMAP
0FC0
3FE0
7070
6038
E018
E018
7000
7C00
1FC0
03F0
0038
0018
C01C
C01C
E018
7038
3FF0
0FC0
ENDCHAR
STARTCHAR T
ENCODING 84
SWIDTH 574 0
DWIDTH 14 0
BBX 14 17 0 0
BITMAP
FFFC
FFFC
0300
0300
0300
0300
0300
0300
0300
0300
0300
0300
0300
0300
0300
0300
0300
ENDCHAR
STARTCHAR U
ENCODING 85
SWIDTH 722 0
DWIDTH 17 0
BBX 14 17 2 0
BITMAP
C01C
C01C
C01C
C01C
C01C
C01C
C01C
C01C
C01C
C01C
C01C
C01C
C018
E038
7078
3FF0
0FC0
ENDCHAR
STARTCHAR V
ENCODING 86
SWIDTH 611 0
DWIDTH 15 0
BBX 15 17 0 0
BITMAP
E00E
600C
601C
7018
3018
3038
3830
1830
1870
1C60
0C60
0CE0
0EC0
06C0
07C0
0780
0380
ENDCHAR
STARTCHAR W
ENCODING 87
SWIDTH 926 0
DWIDTH 22 0
BBX 22 17 0 0
BITMAP
E0300C
60781C
607818
607818
706C18
30CC30
30CC30
30CC30
388630
198660
198660
198660
0F0360
0F03C0
0F03C0
0E01C0
0601C0
ENDCHAR
STARTCHAR X
ENCODING 88
SWIDTH 611 0
DWIDTH 15 0
BBX 15 17 0 0
BITMAP
E01C
7018
3838
1870
1C60
0EE0
07C0
0780
0380
07C0
0EC0
0CE0
1C70
3830
3038
701C
E00E
ENDCHAR
STARTCHAR Y
ENCODING 89
SWIDTH 648 0
DWIDTH 16 0
BBX 16 17 0 0
BITMAP
E007
700E
301C
3818
1C38
0C70
0E60
07E0
03C0
0380
0180
0180
0180
0180
0180
0180
0180
ENDCHAR
STARTCHAR Z
ENCODING 90
SWIDTH 611 0
DWIDTH 15 0
BBX 13 17 1 0
BITMAP
FFF8
FFF8
0030
0070
00E0
01C0
0180
0300
0700
0E00
1C00
3800
3000
6000
E000
FFF8
FFF8
ENDCHAR
STARTCHAR bracketleft
ENCODING 91
SWIDTH 259 0
DWIDTH 6 0
BBX 4 23 2 -5
BITMAP
F0
F0
C0
C0
C0
C0
C0
C0
C0
C0
C0
C0
C0
C0
C0
C0
C0
C0
C0
C0
C0
F0
F0
ENDCHAR
STARTCHAR backslash
ENCODING 92
SWIDTH 333 0
DWIDTH 8 0
BBX 8 18 0 0
BITMAP
C0
C0
40
60
60
20
30
10
18
18
08
0C
04
06
06
02
03
03
ENDCHAR
STARTCHAR bracketright
ENCODING 93
SWIDTH 259 0
DWIDTH 6 0
BBX 4 23 0 -5
BITMAP
F0
F0
10
10
10
10
10
10
10
10
10
10
10
10
10
10
10
10
10
10
10
F0
F0
ENDCHAR
STARTCHAR asciicircum
ENCODING 94
SWIDTH 600 0
DWIDTH 14 0
BBX 12 11 1 6
BITMAP
0600
0700
0F00
0980
1980
10C0
30C0
3060
6060
6030
C030
ENDCHAR
STARTCHAR underscore
ENCODING 95
SWIDTH 500 0
DWIDTH 12 0
BBX 12 1 0 -3
BITMAP
FFF0
ENDCHAR
STARTCHAR grave
ENCODING 96
SWIDTH 222 0
DWIDTH 5 0
BBX 5 4 -1 14
BITMAP
E0
30
30
18
ENDCHAR
STARTCHAR a
ENCODING 97
SWIDTH 537 0
DWIDTH 13 0
BBX 12 13 1 0
BITMAP
1F00
7FC0
60C0
C0C0
00C0
03C0
3EC0
E0C0
C0C0
C0C0
E1C0
FFF0
3C70
ENDCHAR
STARTCHAR b
ENCODING 98
SWIDTH 593 0
DWIDTH 14 0
BBX 11 17 2 0
BITMAP
C000
C000
C000
C000
DF00
FFC0
E1C0
C0E0
C060
C060
C060
C060
C060
C0E0
F1C0
FFC0
DF00
ENDCHAR
STARTCHAR c
ENCODING 99
SWIDTH 537 0
DWIDTH 13 0
BBX 11 13 1 0
BITMAP
1F00
3FC0
70E0
E060
C000
C000
C000
C000
C060
E060
70C0
3FC0
1F00
ENDCHAR
STARTCHAR d
ENCODING 100
SWIDTH 593 0
DWIDTH 14 0
BBX 12 17 1 0
BITMAP
0030
0030
0030
0030
1F30
3FB0
70F0
E070
C070
C030
C030
C030
C070
E070
70F0
3FB0
1F30
ENDCHAR
STARTCHAR e
ENCODING 101
SWIDTH 537 0
DWIDTH 13 0
BBX 11 13 1 0
BITMAP
1F00
3F80
71C0
E0E0
C060
C060
FFE0
FFE0
C000
C060
70E0
3FC0
1F00
ENDCHAR
STARTCHAR f
ENCODING 102
SWIDTH 296 0
DWIDTH 7 0
BBX 7 17 0 0
BITMAP
0E
1E
38
30
FE
FE
30
30
30
30
30
30
30
30
30
30
30
ENDCHAR
STARTCHAR g
ENCODING 103
SWIDTH 574 0
DWIDTH 14 0
BBX 11 18 1 -5
BITMAP
1F60
3FE0
71E0
E0E0
C060
C060
C060
C060
C060
E0E0
71E0
3FE0
1F60
0060
C060
60C0
7FC0
1F00
ENDCHAR
STARTCHAR h
ENCODING 104
SWIDTH 556 0
DWIDTH 13 0
BBX 10 17 2 0
BITMAP
C000
C000
C000
C000
DF00
FF80
E1C0
C0C0
C0C0
C0C0
C0C0
C0C0
C0C0
C0C0
C0C0
C0C0
C0C0
ENDCHAR
STARTCHAR i
ENCODING 105
SWIDTH 222 0
DWIDTH 5 0
BBX 2 17 2 0
BITMAP
C0
C0
C0
00
00
C0
C0
C0
C0
C0
C0
C0
C0
C0
C0
C0
C0
ENDCHAR
STARTCHAR j
ENCODING 106
SWIDTH 222 0
DWIDTH 5 0
BBX 4 22 0 -5
BITMAP
30
30
30
00
00
30
30
30
30
30
30
30
30
30
30
30
30
30
30
70
E0
C0
ENDCHAR
STARTCHAR k
ENCODING 107
SWIDTH 519 0
DWIDTH 12 0
BBX 10 17 2 0
BITMAP
C000
C000
C000
C000
C000
C3C0
C700
CE00
DC00
F800
FC00
EE00
C600
C300
C380
C180
C0C0
ENDCHAR
STARTCHAR l
ENCODING 108
SWIDTH 222 0
DWIDTH 5 0
BBX 2 17 2 0
BITMAP
C0
C0
C0
C0
C0
C0
C0
C0
C0
C0
C0
C0
C0
C0
C0
C0
C0
ENDCHAR
STARTCHAR m
ENCODING 109
SWIDTH 853 0
DWIDTH 20 0
BBX 17 13 2 0
BITMAP
9F1E00
BFFF00
E3E380
C1C180
C18180
C18180
C18180
C18180
C18180
C18180
C18180
C18180
C18180
ENDCHAR
STARTCHAR n
ENCODING 110
SWIDTH 556 0
DWIDTH 13 0
BBX 10 13 2 0
BITMAP
9F00
BF80
E1C0
C0C0
C0C0
C0C0
C0C0
C0C0
C0C0
C0C0
C0C0
C0C0
C0C0
ENDCHAR
STARTCHAR o
ENCODING 111
SWIDTH 574 0
DWIDTH 14 0
BBX 12 13 1 0
BITMAP
1F00
3FC0
70E0
E060
C070
C030
C030
C030
C070
E060
70E0
3FC0
1F00
ENDCHAR
STARTCHAR p
ENCODING 112
SWIDTH 593 0
DWIDTH 14 0
BBX 11 18 2 -5
BITMAP
DF00
FFC0
E1C0
C0E0
C060
C060
C060
C060
C060
C0E0
F1C0
FFC0
DF00
C000
C000
C000
C000
C000
ENDCHAR
STARTCHAR q
ENCODING 113
SWIDTH 593 0
DWIDTH 14 0
BBX 12 18 1 -5
BITMAP
1F30
3FB0
70F0
E070
C070
C030
C030
C030
C070
E070
70F0
3FB0
1F30
0030
0030
0030
0030
0030
ENDCHAR
STARTCHAR r
ENCODING 114
SWIDTH 333 0
DWIDTH 8 0
BBX 7 13 1 0
BITMAP
C6
DE
D8
E0
E0
E0
E0
E0
E0
E0
E0
E0
E0
ENDCHAR
STARTCHAR s
ENCODING 115
SWIDTH 500 0
DWIDTH 12 0
BBX 10 13 1 0
BITMAP
3F00
7F80
E180
C0C0
E000
7800
1F80
03C0
00C0
C0C0
E1C0
7F80
3F00
ENDCHAR
STARTCHAR t
ENCODING 116
SWIDTH 315 0
DWIDTH 8 0
BBX 7 16 0 0
BITMAP
30
30
30
FE
FE
30
30
30
30
30
30
30
30
30
3E
1E
ENDCHAR
STARTCHAR u
ENCODING 117
SWIDTH 556 0
DWIDTH 13 0
BBX 10 12 2 0
BITMAP
C0C0
C0C0
C0C0
C0C0
C0C0
C0C0
C0C0
C0C0
C1C0
C3C0
FEC0
7CC0
ENDCHAR
STARTCHAR v
ENCODING 118
SWIDTH 500 0
DWIDTH 12 0
BBX 12 12 0 0
BITMAP
E070
6060
6060
30C0
30C0
38C0
1980
1980
0D00
0F00
0F00
0600
ENDCHAR
STARTCHAR w
ENCODING 119
SWIDTH 758 0
DWIDTH 18 0
BBX 18 12 0 0
BITMAP
E0C0C0
60E180
61E180
31E180
31A300
313300
1B3300
1B3200
1B1E00
0A1E00
0E1C00
0E0C00
ENDCHAR
STARTCHAR x
ENCODING 120
SWIDTH 518 0
DWIDTH 12 0
BBX 12 12 0 0
BITMAP
7070
30E0
39C0
1D80
0F00
0600
0F00
0F80
19C0
30C0
7060
E070
ENDCHAR
STARTCHAR y
ENCODING 121
SWIDTH 500 0
DWIDTH 12 0
BBX 12 17 0 -5
BITMAP
E070
6060
6060
30C0
30C0
38C0
1980
1980
0D00
0F00
0F00
0600
0600
0600
0C00
7C00
7800
ENDCHAR
STARTCHAR z
ENCODING 122
SWIDTH 480 0
DWIDTH 12 0
BBX 10 13 1 0
BITMAP
FFC0
FFC0
0180
0300
0600
0C00
1C00
1800
3000
6000
C000
FFC0
FFC0
ENDCHAR
STARTCHAR braceleft
ENCODING 123
SWIDTH 333 0
DWIDTH 8 0
BBX 6 22 1 -5
BITMAP
1C
30
30
30
30
30
30
30
30
70
E0
E0
70
30
30
30
30
30
30
30
30
1C
ENDCHAR
STARTCHAR bar
ENCODING 124
SWIDTH 222 0
DWIDTH 5 0
BBX 1 24 2 -5
BITMAP
80
80
80
80
80
80
80
80
80
80
80
80
80
80
80
80
80
80
80
80
80
80
80
80
ENDCHAR
STARTCHAR braceright
ENCODING 125
SWIDTH 333 0
DWIDTH 8 0
BBX 6 22 1 -5
BITMAP
E0
20
30
30
30
30
30
30
30
30
1C
1C
38
30
30
30
30
30
30
30
20
E0
ENDCHAR
STARTCHAR asciitilde
ENCODING 126
SWIDTH 600 0
DWIDTH 14 0
BBX 11 4 2 4
BITMAP
7040
CC60
8640
8380
ENDCHAR
STARTCHAR nonbreakingspace
ENCODING 160
SWIDTH 278 0
DWIDTH 7 0
BBX 1 1 0 0
BITMAP
00
ENDCHAR
STARTCHAR exclamdown
ENCODING 161
SWIDTH 259 0
DWIDTH 6 0
BBX 2 18 2 -5
BITMAP
C0
C0
C0
00
00
40
C0
C0
C0
C0
C0
C0
C0
C0
C0
C0
C0
C0
ENDCHAR
STARTCHAR cent
ENCODING 162
SWIDTH 556 0
DWIDTH 13 0
BBX 11 18 1 -3
BITMAP
0400
0400
0F80
3FC0
74E0
6460
E400
C400
C400
C400
E460
6460
74E0
3FC0
1F80
0400
0400
0400
ENDCHAR
STARTCHAR sterling
ENCODING 163
SWIDTH 556 0
DWIDTH 13 0
BBX 12 19 1 -1
BITMAP
1F00
3FC0
70E0
6060
E060
E070
E000
6000
7000
FF00
3800
1800
1800
1800
3000
2020
5FF0
FFE0
4000
ENDCHAR
STARTCHAR currency
ENCODING 164
SWIDTH 556 0
DWIDTH 13 0
BBX 12 13 1 2
BITMAP
8020
DF30
7FE0
F0E0
E060
C070
C030
C030
C060
E060
70E0
FFE0
9F30
ENDCHAR
STARTCHAR yen
ENCODING 165
SWIDTH 556 0
DWIDTH 13 0
BBX 13 17 0 0
BITMAP
E018
6038
7030
3060
3860
18C0
0CC0
0D80
3FE0
0700
0300
0300
3FE0
0300
0300
0300
0300
ENDCHAR
STARTCHAR brokenbar
ENCODING 166
SWIDTH 222 0
DWIDTH 5 0
BBX 1 18 2 -2
BITMAP
80
80
80
80
80
80
00
00
00
00
00
00
80
80
80
80
80
80
ENDCHAR
STARTCHAR section
ENCODING 167
SWIDTH 556 0
DWIDTH 13 0
BBX 11 23 1 -5
BITMAP
0F00
3F80
31C0
60C0
6000
3000
3800
7E00
EF80
C3C0
C0E0
C060
6060
7860
1E60
07C0
0380
00C0
60C0
60C0
31C0
3F80
0F00
ENDCHAR
STARTCHAR dieresis
ENCODING 168
SWIDTH 222 0
DWIDTH 5 0
BBX 7 3 -1 14
BITMAP
C6
C6
C6
ENDCHAR
STARTCHAR copyright
ENCODING 169
SWIDTH 800 0
DWIDTH 19 0
BBX 18 17 1 0
BITMAP
03F000
1C1C00
300600
63E300
461980
CC0980
8C0080
8800C0
8800C0
8800C0
8C0080
CC0980
461180
61E300
300600
1C1C00
03F000
ENDCHAR
STARTCHAR ordfeminine
ENCODING 170
SWIDTH 378 0
DWIDTH 9 0
BBX 7 8 1 9
BITMAP
7C
C6
06
7E
C6
86
8E
7E
ENDCHAR
STARTCHAR guillemotleft
ENCODING 171
SWIDTH 463 0
DWIDTH 11 0
BBX 9 8 1 3
BITMAP
1080
3180
6700
C600
C600
6700
3180
1080
ENDCHAR
STARTCHAR logicalnot
ENCODING 172
SWIDTH 600 0
DWIDTH 14 0
BBX 12 7 1 3
BITMAP
FFF0
FFF0
0010
0010
0010
0010
0010
ENDCHAR
STARTCHAR registered
ENCODING 174
SWIDTH 800 0
DWIDTH 19 0
BBX 18 17 1 0
BITMAP
03F000
1C1C00
300600
67F300
461980
C61980
861880
8618C0
87F0C0
8640C0
866080
C63180
461180
661B00
300600
1C1C00
03F000
ENDCHAR
STARTCHAR macron
ENCODING 175
SWIDTH 222 0
DWIDTH 5 0
BBX 8 1 -1 15
BITMAP
FF
ENDCHAR
STARTCHAR degree
ENCODING 176
SWIDTH 400 0
DWIDTH 10 0
BBX 7 7 1 10
BITMAP
3C
46
C2
C2
C2
46
3C
ENDCHAR
STARTCHAR plusminus
ENCODING 177
SWIDTH 600 0
DWIDTH 14 0
BBX 12 12 1 0
BITMAP
0600
0600
0600
0600
FFF0
FFF0
0600
0600
0600
0600
FFF0
FFF0
ENDCHAR
STARTCHAR twosuperior
ENCODING 178
SWIDTH 333 0
DWIDTH 8 0
BBX 8 10 0 7
BITMAP
3C
62
43
03
06
0E
38
60
40
FF
ENDCHAR
STARTCHAR threesuperior
ENCODING 179
SWIDTH 333 0
DWIDTH 8 0
BBX 8 10 0 7
BITMAP
3C
66
C2
06
1C
02
03
C3
C2
3C
ENDCHAR
STARTCHAR acute
ENCODING 180
SWIDTH 222 0
DWIDTH 5 0
BBX 5 4 1 14
BITMAP
38
70
60
C0
ENDCHAR
STARTCHAR mu
ENCODING 181
SWIDTH 556 0
DWIDTH 13 0
BBX 10 17 2 -5
BITMAP
C0C0
C0C0
C0C0
C0C0
C0C0
C0C0
C0C0
C0C0
C1C0
C3C0
FFC0
FCC0
C000
C000
C000
C000
C000
ENDCHAR
STARTCHAR paragraph
ENCODING 182
SWIDTH 600 0
DWIDTH 14 0
BBX 11 21 1 -4
BITMAP
1FE0
7E20
7E20
FE20
FE20
FE20
FE20
7E20
3E20
0620
0620
0620
0620
0620
0620
0620
0620
0620
0620
0620
0620
ENDCHAR
STARTCHAR periodcentered
ENCODING 183
SWIDTH 278 0
DWIDTH 7 0
BBX 3 3 2 6
BITMAP
C0
E0
C0
ENDCHAR
STARTCHAR cedilla
ENCODING 184
SWIDTH 222 0
DWIDTH 5 0
BBX 5 5 0 -5
BITMAP
20
78
98
98
F0
ENDCHAR
STARTCHAR onesuperior
ENCODING 185
SWIDTH 333 0
DWIDTH 8 0
BBX 4 10 2 7
BITMAP
10
30
F0
30
30
30
30
30
30
30
ENDCHAR
STARTCHAR ordmasculine
ENCODING 186
SWIDTH 384 0
DWIDTH 9 0
BBX 8 8 1 9
BITMAP
3C
C6
82
83
83
82
C6
7C
ENDCHAR
STARTCHAR guillemotright
ENCODING 187
SWIDTH 463 0
DWIDTH 11 0
BBX 8 8 2 3
BITMAP
88
8C
E6
63
63
E6
8C
88
ENDCHAR
STARTCHAR onequarter
ENCODING 188
SWIDTH 834 0
DWIDTH 20 0
BBX 18 18 1 -1
BITMAP
100600
300C00
F00800
101800
103000
102000
106000
104100
10C300
108700
010500
030900
021100
063100
043FC0
0C0100
180100
100000
ENDCHAR
STARTCHAR onehalf
ENCODING 189
SWIDTH 834 0
DWIDTH 20 0
BBX 18 18 1 -1
BITMAP
100C00
300800
F01800
101000
103000
106000
104000
10C780
1088C0
119840
111840
0300C0
060380
040700
0C0C00
081800
181FC0
300000
ENDCHAR
STARTCHAR threequarters
ENCODING 190
SWIDTH 834 0
DWIDTH 20 0
BBX 18 18 1 -1
BITMAP
3C0300
660200
C20600
060400
1C0C00
031800
031000
C33180
C22180
3C6380
004580
008D80
018980
011180
033FC0
020180
060180
0C0000
ENDCHAR
STARTCHAR questiondown
ENCODING 191
SWIDTH 556 0
DWIDTH 13 0
BBX 10 18 2 -5
BITMAP
1C00
1C00
1C00
0000
0000
0C00
0C00
1800
3800
7000
E000
C000
C0C0
C0C0
C1C0
E380
7F00
3E00
ENDCHAR
STARTCHAR Agrave
ENCODING 192
SWIDTH 648 0
DWIDTH 16 0
BBX 16 22 0 0
BITMAP
0600
0300
0180
0000
0000
0380
03C0
02C0
06C0
0660
0C60
0C70
0C30
1830
1838
3FF8
3FFC
300C
700C
600E
E006
C007
ENDCHAR
STARTCHAR Aacute
ENCODING 193
SWIDTH 648 0
DWIDTH 16 0
BBX 16 22 0 0
BITMAP
00E0
01C0
0180
0200
0000
0380
03C0
02C0
06C0
0660
0C60
0C70
0C30
1830
1838
3FF8
3FFC
300C
700C
600E
E006
C007
ENDCHAR
STARTCHAR Acircumflex
ENCODING 194
SWIDTH 648 0
DWIDTH 16 0
BBX 16 22 0 0
BITMAP
0380
02C0
0660
0800
0000
0380
03C0
02C0
06C0
0660
0C60
0C70
0C30
1830
1838
3FF8
3FFC
300C
700C
600E
E006
C007
ENDCHAR
STARTCHAR Atilde
ENCODING 195
SWIDTH 648 0
DWIDTH 16 0
BBX 16 21 0 0
BITMAP
0730
0FF0
08E0
0000
0380
03C0
03C0
06C0
0660
0C60
0C70
0C30
1830
1838
3FF8
3FFC
300C
700C
600E
E006
C007
ENDCHAR
STARTCHAR Adieresis
ENCODING 196
SWIDTH 648 0
DWIDTH 16 0
BBX 16 21 0 0
BITMAP
0E60
0E60
0E60
0000
0380
03C0
03C0
06C0
0660
0C60
0C70
0C30
1830
1838
3FF8
3FFC
300C
700C
600E
E006
C007
ENDCHAR
STARTCHAR Aring
ENCODING 197
SWIDTH 648 0
DWIDTH 16 0
BBX 16 23 0 0
BITMAP
0380
0640
0440
0440
0640
0380
0380
03C0
03C0
06C0
0660
0C60
0C70
0C30
1830
1838
3FF8
3FFC
300C
700C
600E
E006
C007
ENDCHAR
STARTCHAR AE
ENCODING 198
SWIDTH 926 0
DWIDTH 22 0
BBX 21 17 0 0
BITMAP
00FFF8
00FFF8
01D800
019800
039800
031800
061800
061FF8
0C1FF8
0C1800
1FF800
1FF800
381800
301800
701800
601FF8
E01FF8
ENDCHAR
STARTCHAR Ccedilla
ENCODING 199
SWIDTH 722 0
DWIDTH 17 0
BBX 15 23 1 -5
BITMAP
07E0
1FF8
3C3C
700E
6006
6006
E000
C000
C000
C000
C000
E006
E006
600E
700C
3C3C
1FF8
07E0
0100
03C0
00C0
04C0
0780
ENDCHAR
STARTCHAR Egrave
ENCODING 200
SWIDTH 611 0
DWIDTH 15 0
BBX 12 22 2 0
BITMAP
3800
1C00
0C00
0200
0000
FFF0
FFF0
C000
C000
C000
C000
C000
FFE0
FFE0
C000
C000
C000
C000
C000
C000
FFF0
FFF0
ENDCHAR
STARTCHAR Eacute
ENCODING 201
SWIDTH 611 0
DWIDTH 15 0
BBX 12 22 2 0
BITMAP
0380
0600
0C00
0000
0000
FFF0
FFF0
C000
C000
C000
C000
C000
FFE0
FFE0
C000
C000
C000
C000
C000
C000
FFF0
FFF0
ENDCHAR
STARTCHAR Ecircumflex
ENCODING 202
SWIDTH 611 0
DWIDTH 15 0
BBX 12 22 2 0
BITMAP
0E00
1B00
3300
0080
0000
FFF0
FFF0
C000
C000
C000
C000
C000
FFE0
FFE0
C000
C000
C000
C000
C000
C000
FFF0
FFF0
ENDCHAR
STARTCHAR Edieresis
ENCODING 203
SWIDTH 611 0
DWIDTH 15 0
BBX 12 21 2 0
BITMAP
3180
3180
3180
0000
FFF0
FFF0
C000
C000
C000
C000
C000
FFE0
FFE0
C000
C000
C000
C000
C000
C000
FFF0
FFF0
ENDCHAR
STARTCHAR Igrave
ENCODING 204
SWIDTH 259 0
DWIDTH 6 0
BBX 5 22 0 0
BITMAP
E0
60
30
08
00
30
30
30
30
30
30
30
30
30
30
30
30
30
30
30
30
30
ENDCHAR
STARTCHAR Iacute
ENCODING 205
SWIDTH 259 0
DWIDTH 6 0
BBX 4 22 2 0
BITMAP
70
60
C0
00
00
C0
C0
C0
C0
C0
C0
C0
C0
C0
C0
C0
C0
C0
C0
C0
C0
C0
ENDCHAR
STARTCHAR Icircumflex
ENCODING 206
SWIDTH 259 0
DWIDTH 6 0
BBX 7 22 0 0
BITMAP
38
78
CC
02
00
30
30
30
30
30
30
30
30
30
30
30
30
30
30
30
30
30
ENDCHAR
STARTCHAR Idieresis
ENCODING 207
SWIDTH 259 0
DWIDTH 6 0
BBX 6 21 0 0
BITMAP
CC
CC
CC
00
30
30
30
30
30
30
30
30
30
30
30
30
30
30
30
30
30
ENDCHAR
STARTCHAR Eth
ENCODING 208
SWIDTH 704 0
DWIDTH 17 0
BBX 16 17 0 0
BITMAP
3FE0
3FF8
301C
300E
3006
3007
3003
FF83
FF83
3003
3007
3007
3006
300E
301C
3FF8
3FE0
ENDCHAR
STARTCHAR Ntilde
ENCODING 209
SWIDTH 722 0
DWIDTH 17 0
BBX 14 21 2 0
BITMAP
0E60
1FC0
11C0
0000
E01C
E01C
F01C
F81C
D81C
DC1C
CE1C
C61C
C71C
C39C
C19C
C1DC
C0DC
C07C
C07C
C03C
C01C
ENDCHAR
STARTCHAR Ograve
ENCODING 210
SWIDTH 760 0
DWIDTH 18 0
BBX 16 22 1 0
BITMAP
0700
0300
0180
0040
07E0
1FF8
3C3C
700E
6006
E007
E003
C003
C003
C003
C003
E003
E007
6006
700E
3C1C
1FF8
07E0
ENDCHAR
STARTCHAR Oacute
ENCODING 211
SWIDTH 760 0
DWIDTH 18 0
BBX 16 22 1 0
BITMAP
00E0
00C0
0180
0000
07E0
1FF8
3C3C
700E
6006
E007
E003
C003
C003
C003
C003
E003
E007
6006
700E
3C1C
1FF8
07E0
ENDCHAR
STARTCHAR Ocircumflex
ENCODING 212
SWIDTH 760 0
DWIDTH 18 0
BBX 16 22 1 0
BITMAP
01C0
03C0
0660
0010
07E0
1FF8
3C3C
700E
6006
E007
E003
C003
C003
C003
C003
E003
E007
6006
700E
3C1C
1FF8
07E0
ENDCHAR
STARTCHAR Otilde
ENCODING 213
SWIDTH 760 0
DWIDTH 18 0
BBX 16 21 1 0
BITMAP
0710
07F0
0CE0
07E0
1FF8
3C3C
700E
6006
E007
E003
C003
C003
C003
C003
E003
E007
6006
700E
3C1C
1FF8
07E0
ENDCHAR
STARTCHAR Odieresis
ENCODING 214
SWIDTH 760 0
DWIDTH 18 0
BBX 16 21 1 0
BITMAP
0660
0660
0660
07E0
1FF8
3C3C
700E
6006
E007
E003
C003
C003
C003
C003
E003
E007
6006
700E
3C1C
1FF8
07E0
ENDCHAR
STARTCHAR multiply
ENCODING 215
SWIDTH 600 0
DWIDTH 14 0
BBX 11 11 2 1
BITMAP
8040
C0E0
6180
3300
1E00
0C00
1E00
3300
6180
C0C0
8060
ENDCHAR
STARTCHAR Oslash
ENCODING 216
SWIDTH 760 0
DWIDTH 18 0
BBX 16 18 1 0
BITMAP
07E1
1FFB
3C1E
700E
600E
E017
E023
C043
C083
C103
C203
C603
EC07
7806
700E
3C1C
5FF8
87E0
ENDCHAR
STARTCHAR Ugrave
ENCODING 217
SWIDTH 722 0
DWIDTH 17 0
BBX 14 22 2 0
BITMAP
1C00
0600
0300
0000
C01C
C01C
C01C
C01C
C01C
C01C
C01C
C01C
C01C
C01C
C01C
C01C
C018
C018
E038
7070
3FF0
0FC0
ENDCHAR
STARTCHAR Uacute
ENCODING 218
SWIDTH 722 0
DWIDTH 17 0
BBX 14 22 2 0
BITMAP
01C0
0380
0300
0400
C01C
C01C
C01C
C01C
C01C
C01C
C01C
C01C
C01C
C01C
C01C
C01C
C018
C018
E038
7070
3FF0
0FC0
ENDCHAR
STARTCHAR Ucircumflex
ENCODING 219
SWIDTH 722 0
DWIDTH 17 0
BBX 14 22 2 0
BITMAP
0700
0D80
0CC0
1000
C01C
C01C
C01C
C01C
C01C
C01C
C01C
C01C
C01C
C01C
C01C
C01C
C018
C018
E038
7070
3FF0
0FC0
ENDCHAR
STARTCHAR Udieresis
ENCODING 220
SWIDTH 722 0
DWIDTH 17 0
BBX 14 21 2 0
BITMAP
18C0
18C0
18C0
C01C
C01C
C01C
C01C
C01C
C01C
C01C
C01C
C01C
C01C
C01C
C01C
C018
C018
E038
7070
3FF0
0FC0
ENDCHAR
STARTCHAR Yacute
ENCODING 221
SWIDTH 648 0
DWIDTH 16 0
BBX 16 22 0 0
BITMAP
00E0
01C0
0180
0200
0000
E00F
700C
381C
3818
1C30
0C70
0E60
07E0
03C0
0380
0180
0180
0180
0180
0180
0180
0180
ENDCHAR
STARTCHAR Thorn
ENCODING 222
SWIDTH 648 0
DWIDTH 16 0
BBX 13 17 2 0
BITMAP
C000
C000
C000
FFC0
FFE0
C070
C030
C038
C038
C030
C070
FFE0
FFC0
C000
C000
C000
C000
ENDCHAR
STARTCHAR germandbls
ENCODING 223
SWIDTH 556 0
DWIDTH 13 0
BBX 10 18 2 0
BITMAP
3E00
7F00
E380
C180
C180
C180
C180
C380
DE00
DF00
C180
C0C0
C0C0
C0C0
C1C0
C380
DF80
DE00
ENDCHAR
STARTCHAR agrave
ENCODING 224
SWIDTH 537 0
DWIDTH 13 0
BBX 12 18 1 0
BITMAP
3800
0C00
0400
0200
0000
1F00
7FC0
60C0
C0C0
00C0
03C0
3EC0
E0C0
C0C0
C0C0
E1C0
FFF0
3C70
ENDCHAR
STARTCHAR aacute
ENCODING 225
SWIDTH 537 0
DWIDTH 13 0
BBX 12 18 1 0
BITMAP
0380
0600
0400
0800
0000
1F00
7FC0
60C0
C0C0
00C0
03C0
3EC0
E0C0
C0C0
C0C0
E1C0
FFF0
3C70
ENDCHAR
STARTCHAR acircumflex
ENCODING 226
SWIDTH 537 0
DWIDTH 13 0
BBX 12 18 1 0
BITMAP
0E00
1B00
1300
2080
0000
1F00
7FC0
60C0
C0C0
00C0
03C0
3EC0
E0C0
C0C0
C0C0
E1C0
FFF0
3C70
ENDCHAR
STARTCHAR atilde
ENCODING 227
SWIDTH 537 0
DWIDTH 13 0
BBX 12 17 1 0
BITMAP
1CC0
3F80
2780
4000
1F00
7FC0
60C0
C0C0
00C0
03C0
3EC0
E0C0
C0C0
C0C0
E1C0
FFF0
3C70
ENDCHAR
STARTCHAR adieresis
ENCODING 228
SWIDTH 537 0
DWIDTH 13 0
BBX 12 17 1 0
BITMAP
3180
3180
3180
0000
1F00
7FC0
60C0
C0C0
00C0
03C0
3EC0
E0C0
C0C0
C0C0
E1C0
FFF0
3C70
ENDCHAR
STARTCHAR aring
ENCODING 229
SWIDTH 537 0
DWIDTH 13 0
BBX 12 19 1 0
BITMAP
0E00
1100
1100
1100
1100
0E00
1F00
7FC0
60C0
C0C0
00C0
03C0
3EC0
E0C0
C0C0
C0C0
E1C0
FFF0
3C70
ENDCHAR
STARTCHAR ae
ENCODING 230
SWIDTH 870 0
DWIDTH 21 0
BBX 19 13 1 0
BITMAP
1F1F00
7FFF80
60F1C0
C0E0E0
00C060
03C060
3FFFE0
FEFFE0
C0C000
C0E060
E1F0E0
FFBFC0
3E1F00
ENDCHAR
STARTCHAR ccedilla
ENCODING 231
SWIDTH 537 0
DWIDTH 13 0
BBX 11 18 1 -5
BITMAP
1F00
3FC0
70E0
E060
C000
C000
C000
C000
C060
E060
70C0
3FC0
1F00
0400
0F00
0300
1300
1E00
ENDCHAR
STARTCHAR egrave
ENCODING 232
SWIDTH 537 0
DWIDTH 13 0
BBX 11 18 1 0
BITMAP
3800
0C00
0400
0200
0000
1F00
3F80
71C0
E0E0
C060
C060
FFE0
FFE0
C000
C060
70E0
3FC0
1F00
ENDCHAR
STARTCHAR eacute
ENCODING 233
SWIDTH 537 0
DWIDTH 13 0
BBX 11 18 1 0
BITMAP
0380
0600
0400
0800
0000
1F00
3F80
71C0
E0E0
C060
C060
FFE0
FFE0
C000
C060
70E0
3FC0
1F00
ENDCHAR
STARTCHAR ecircumflex
ENCODING 234
SWIDTH 537 0
DWIDTH 13 0
BBX 11 18 1 0
BITMAP
0E00
1B00
1300
2080
0000
1F00
3F80
71C0
E0E0
C060
C060
FFE0
FFE0
C000
C060
70E0
3FC0
1F00
ENDCHAR
STARTCHAR edieresis
ENCODING 235
SWIDTH 537 0
DWIDTH 13 0
BBX 11 17 1 0
BITMAP
3180
3180
3180
0000
1F00
3F80
71C0
E0E0
C060
C060
FFE0
FFE0
C000
C060
70E0
3FC0
1F00
ENDCHAR
STARTCHAR igrave
ENCODING 236
SWIDTH 222 0
DWIDTH 5 0
BBX 5 18 -1 0
BITMAP
E0
30
18
08
00
00
18
18
18
18
18
18
18
18
18
18
18
18
ENDCHAR
STARTCHAR iacute
ENCODING 237
SWIDTH 222 0
DWIDTH 5 0
BBX 5 18 1 0
BITMAP
38
70
60
C0
00
00
60
60
60
60
60
60
60
60
60
60
60
60
ENDCHAR
STARTCHAR icircumflex
ENCODING 238
SWIDTH 222 0
DWIDTH 5 0
BBX 7 18 -1 0
BITMAP
38
6C
66
C6
00
00
18
18
18
18
18
18
18
18
18
18
18
18
ENDCHAR
STARTCHAR idieresis
ENCODING 239
SWIDTH 222 0
DWIDTH 5 0
BBX 7 17 -1 0
BITMAP
C6
C6
C6
00
00
18
18
18
18
18
18
18
18
18
18
18
18
ENDCHAR
STARTCHAR eth
ENCODING 240
SWIDTH 574 0
DWIDTH 14 0
BBX 12 18 1 0
BITMAP
0C40
1FA0
0700
1F80
31C0
00C0
1FE0
3FE0
70F0
E070
C030
C030
C030
C070
E060
70E0
3FC0
1F00
ENDCHAR
STARTCHAR ntilde
ENCODING 241
SWIDTH 556 0
DWIDTH 13 0
BBX 10 17 2 0
BITMAP
3980
7F00
4700
0000
1F00
BF80
A1C0
C0C0
C0C0
C0C0
C0C0
C0C0
C0C0
C0C0
C0C0
C0C0
C0C0
ENDCHAR
STARTCHAR ograve
ENCODING 242
SWIDTH 574 0
DWIDTH 14 0
BBX 12 18 1 0
BITMAP
1C00
0C00
0600
0000
0000
1F00
3FC0
70E0
E060
C070
C030
C030
C030
C070
E060
70E0
3FC0
1F00
ENDCHAR
STARTCHAR oacute
ENCODING 243
SWIDTH 574 0
DWIDTH 14 0
BBX 12 18 1 0
BITMAP
0380
0300
0600
0800
0000
1F00
3FC0
70E0
E060
C070
C030
C030
C030
C070
E060
70E0
3FC0
1F00
ENDCHAR
STARTCHAR ocircumflex
ENCODING 244
SWIDTH 574 0
DWIDTH 14 0
BBX 12 18 1 0
BITMAP
0E00
0F00
1980
2000
0000
1F00
3FC0
70E0
E060
C070
C030
C030
C030
C070
E060
70E0
3FC0
1F00
ENDCHAR
STARTCHAR otilde
ENCODING 245
SWIDTH 574 0
DWIDTH 14 0
BBX 12 17 1 0
BITMAP
1C40
3FC0
2380
0000
1F00
3FC0
70E0
E060
C070
C030
C030
C030
C070
E060
70E0
3FC0
1F00
ENDCHAR
STARTCHAR odieresis
ENCODING 246
SWIDTH 574 0
DWIDTH 14 0
BBX 12 17 1 0
BITMAP
1980
1980
1980
0000
1F00
3FC0
70E0
E060
C070
C030
C030
C030
C070
E060
70E0
3FC0
1F00
ENDCHAR
STARTCHAR divide
ENCODING 247
SWIDTH 600 0
DWIDTH 14 0
BBX 12 13 1 0
BITMAP
0600
0700
0600
0000
0000
0000
FFF0
FFF0
0000
0000
0600
0700
0600
ENDCHAR
STARTCHAR oslash
ENCODING 248
SWIDTH 574 0
DWIDTH 14 0
BBX 12 14 1 -1
BITMAP
1F10
3FE0
70E0
60E0
C1F0
C130
C230
C430
C870
F060
70E0
7FC0
9F80
8000
ENDCHAR
STARTCHAR ugrave
ENCODING 249
SWIDTH 556 0
DWIDTH 13 0
BBX 10 18 2 0
BITMAP
7000
1800
0C00
0000
0000
C0C0
C0C0
C0C0
C0C0
C0C0
C0C0
C0C0
C0C0
C0C0
C1C0
C3C0
FEC0
3CC0
ENDCHAR
STARTCHAR uacute
ENCODING 250
SWIDTH 556 0
DWIDTH 13 0
BBX 10 18 2 0
BITMAP
0700
0E00
0C00
1000
0000
C0C0
C0C0
C0C0
C0C0
C0C0
C0C0
C0C0
C0C0
C0C0
C1C0
C3C0
FEC0
3CC0
ENDCHAR
STARTCHAR ucircumflex
ENCODING 251
SWIDTH 556 0
DWIDTH 13 0
BBX 10 18 2 0
BITMAP
1C00
3600
3300
4000
0000
C0C0
C0C0
C0C0
C0C0
C0C0
C0C0
C0C0
C0C0
C0C0
C1C0
C3C0
FEC0
3CC0
ENDCHAR
STARTCHAR udieresis
ENCODING 252
SWIDTH 556 0
DWIDTH 13 0
BBX 10 17 2 0
BITMAP
7300
7300
7300
0000
C0C0
C0C0
C0C0
C0C0
C0C0
C0C0
C0C0
C0C0
C0C0
C1C0
C3C0
FEC0
3CC0
ENDCHAR
STARTCHAR yacute
ENCODING 253
SWIDTH 500 0
DWIDTH 12 0
BBX 12 23 0 -5
BITMAP
0380
0300
0600
0400
0000
E030
6060
6060
7060
30C0
30C0
1880
1980
1980
0D00
0F00
0700
0600
0600
0C00
0C00
7C00
7800
ENDCHAR
STARTCHAR thorn
ENCODING 254
SWIDTH 593 0
DWIDTH 14 0
BBX 11 22 2 -5
BITMAP
C000
C000
C000
C000
DF00
FFC0
E1C0
C0E0
C060
C060
C060
C060
C060
C0E0
F1C0
FFC0
DF00
C000
C000
C000
C000
C000
ENDCHAR
STARTCHAR ydieresis
ENCODING 255
SWIDTH 500 0
DWIDTH 12 0
BBX 12 22 0 -5
BITMAP
1980
1980
1980
0000
0000
E070
6060
7060
30C0
30C0
18C0
1980
1980
0D00
0F00
0700
0600
0600
0400
0C00
7C00
7800
ENDCHAR
STARTCHAR Aogonek
ENCODING 260
SWIDTH 648 0
DWIDTH 16 0
BBX 16 22 0 -5
BITMAP
0380
03C0
03C0
06C0
0660
0C60
0C70
0C30
1830
1838
3FF8
3FFC
300C
700C
600E
E006
C006
0005
0008
0018
001A
001F
ENDCHAR
STARTCHAR aogonek
ENCODING 261
SWIDTH 537 0
DWIDTH 13 0
BBX 12 18 1 -5
BITMAP
1F00
7FC0
60C0
C0C0
00C0
03C0
3EC0
E0C0
C0C0
C0C0
E1C0
FFF0
3C70
00C0
0180
0100
01A0
01F0
ENDCHAR
STARTCHAR Cacute
ENCODING 262
SWIDTH 722 0
DWIDTH 17 0
BBX 15 22 1 0
BITMAP
00E0
01C0
0180
0200
07E0
1FF8
3C3C
700C
600E
6006
E000
C000
C000
C000
C000
E006
E006
600E
700C
3C3C
1FF8
07E0
ENDCHAR
STARTCHAR cacute
ENCODING 263
SWIDTH 537 0
DWIDTH 13 0
BBX 11 18 1 0
BITMAP
0380
0600
0400
0800
0000
1F00
3FC0
70E0
E060
C000
C000
C000
C000
C060
E060
70C0
3FC0
1F00
ENDCHAR
STARTCHAR Eogonek
ENCODING 280
SWIDTH 611 0
DWIDTH 15 0
BBX 12 22 2 -5
BITMAP
FFF0
FFF0
C000
C000
C000
C000
C000
FFE0
FFE0
C000
C000
C000
C000
C000
C000
FFF0
FFF0
0040
0080
0180
01A0
00F0
ENDCHAR
STARTCHAR eogonek
ENCODING 281
SWIDTH 537 0
DWIDTH 13 0
BBX 11 18 1 -5
BITMAP
1F00
3F80
71C0
E0E0
C060
C060
FFE0
FFE0
C000
C060
70E0
3FC0
1F00
0C00
1800
1000
1A00
1F00
ENDCHAR
STARTCHAR dotlessi
ENCODING 305
SWIDTH 222 0
DWIDTH 5 0
BBX 2 12 2 0
BITMAP
C0
C0
C0
C0
C0
C0
C0
C0
C0
C0
C0
C0
ENDCHAR
STARTCHAR Lslash
ENCODING 321
SWIDTH 556 0
DWIDTH 13 0
BBX 13 17 0 0
BITMAP
3000
3000
3000
3000
3040
31C0
3380
3600
3C00
3000
F000
F000
B000
3000
3000
3FF8
3FF8
ENDCHAR
STARTCHAR lslash
ENCODING 322
SWIDTH 222 0
DWIDTH 5 0
BBX 5 17 0 0
BITMAP
30
30
30
30
30
38
38
30
70
B0
B0
30
30
30
30
30
30
ENDCHAR
STARTCHAR Nacute
ENCODING 323
SWIDTH 722 0
DWIDTH 17 0
BBX 14 22 2 0
BITMAP
01C0
0180
0300
0000
0000
E01C
E01C
F01C
F81C
D81C
CC1C
CE1C
C61C
C31C
C39C
C19C
C1DC
C0DC
C07C
C07C
C03C
C01C
ENDCHAR
STARTCHAR nacute
ENCODING 324
SWIDTH 556 0
DWIDTH 13 0
BBX 10 18 2 0
BITMAP
0700
0E00
0C00
1800
0000
9F00
BF80
E1C0
C0C0
C0C0
C0C0
C0C0
C0C0
C0C0
C0C0
C0C0
C0C0
C0C0
ENDCHAR
STARTCHAR OE
ENCODING 338
SWIDTH 1074 0
DWIDTH 26 0
BBX 24 18 1 0
BITMAP
07C000
1FFFFF
3C3FFF
700E00
600E00
E00E00
E00E00
C00E00
C00FFE
C00FFE
C00E00
C00E00
E00E00
600E00
700E00
3C3E00
1FFFFF
07EFFF
ENDCHAR
STARTCHAR oe
ENCODING 339
SWIDTH 891 0
DWIDTH 21 0
BBX 20 13 1 0
BITMAP
1F0F00
3FBFC0
71F0E0
E0E060
C06060
C06030
C07FF0
C07FF0
C06000
E0E070
71F0E0
3FBFC0
1F0F80
ENDCHAR
STARTCHAR Sacute
ENCODING 346
SWIDTH 648 0
DWIDTH 16 0
BBX 14 22 1 0
BITMAP
01C0
0180
0300
0000
0FC0
3FE0
7070
6038
E018
E000
7000
7C00
1FC0
03F0
0038
0018
C01C
C01C
E018
7038
3FF0
0FC0
ENDCHAR
STARTCHAR sacute
ENCODING 347
SWIDTH 500 0
DWIDTH 12 0
BBX 10 18 1 0
BITMAP
0700
0600
0C00
0000
0000
3F00
7F80
E180
C0C0
E000
7800
1F80
03C0
00C0
C0C0
E1C0
7F80
3F00
ENDCHAR
STARTCHAR Scaron
ENCODING 352
SWIDTH 648 0
DWIDTH 16 0
BBX 14 22 1 0
BITMAP
1CC0
0D80
0780
0000
0FC0
3FE0
7070
6038
E018
E018
7000
7C00
1FC0
03F0
0038
0018
C01C
C01C
E018
7038
3FF0
0FC0
ENDCHAR
STARTCHAR scaron
ENCODING 353
SWIDTH 500 0
DWIDTH 12 0
BBX 10 18 1 0
BITMAP
7380
3B00
1E00
0000
0000
3F00
7F80
E180
C0C0
E000
7800
1F80
03C0
00C0
C0C0
E1C0
7F80
3F00
ENDCHAR
STARTCHAR Ydieresis
ENCODING 376
SWIDTH 648 0
DWIDTH 16 0
BBX 16 21 0 0
BITMAP
0E60
0E60
0E60
0000
E007
700C
301C
3818
1C30
0C70
0E60
07E0
03C0
0380
0180
0180
0180
0180
0180
0180
0180
ENDCHAR
STARTCHAR Zacute
ENCODING 377
SWIDTH 611 0
DWIDTH 15 0
BBX 13 22 1 0
BITMAP
01C0
0380
0300
0400
0000
FFF8
FFF8
0030
0070
00E0
01C0
0180
0300
0700
0E00
1C00
3800
3000
6000
E000
FFF8
FFF8
ENDCHAR
STARTCHAR zacute
ENCODING 378
SWIDTH 480 0
DWIDTH 12 0
BBX 10 18 1 0
BITMAP
0700
0600
0C00
1000
0000
FFC0
FFC0
0180
0300
0600
0C00
1C00
1800
3000
6000
C000
FFC0
FFC0
ENDCHAR
STARTCHAR Zdotaccent
ENCODING 379
SWIDTH 611 0
DWIDTH 15 0
BBX 13 21 1 0
BITMAP
0600
0600
0600
0000
FFF8
FFF8
0030
0070
00E0
01C0
0180
0300
0700
0E00
1C00
3800
3000
6000
E000
FFF8
FFF8
ENDCHAR
STARTCHAR zdotaccent
ENCODING 380
SWIDTH 480 0
DWIDTH 12 0
BBX 10 17 1 0
BITMAP
0C00
0C00
0C00
0000
FFC0
FFC0
0180
0300
0600
0C00
1C00
1800
3000
6000
C000
FFC0
FFC0
ENDCHAR
STARTCHAR Zcaron
ENCODING 381
SWIDTH 611 0
DWIDTH 15 0
BBX 13 22 1 0
BITMAP
18C0
0D80
0700
0000
0000
FFF8
FFF8
0030
0070
00E0
01C0
0180
0300
0700
0E00
1C00
3800
3000
6000
E000
FFF8
FFF8
ENDCHAR
STARTCHAR zcaron
ENCODING 382
SWIDTH 480 0
DWIDTH 12 0
BBX 10 18 1 0
BITMAP
7300
3600
1E00
0000
0000
FFC0
FFC0
0180
0300
0600
0C00
1C00
1800
3000
6000
C000
FFC0
FFC0
ENDCHAR
STARTCHAR uni018F
ENCODING 399
SWIDTH 743 0
DWIDTH 18 0
BBX 16 18 1 0
BITMAP
07E0
1FF0
783C
700C
E00E
0006
0007
0007
FFFF
FFFF
C003
C007
E006
6006
700C
383C
1FF8
07E0
ENDCHAR
STARTCHAR florin
ENCODING 402
SWIDTH 556 0
DWIDTH 13 0
BBX 12 21 0 -4
BITMAP
00F0
01F0
0380
0300
0300
0300
1FC0
1FC0
0600
0600
0600
0600
0600
0E00
0C00
0C00
0C00
0C00
1800
F800
F000
ENDCHAR
STARTCHAR uni01A2
ENCODING 418
SWIDTH 803 0
DWIDTH 19 0
BBX 16 23 1 -5
BITMAP
07C0
1FFF
3C3F
7033
6033
E033
E033
C033
C033
C033
C033
E033
E033
6033
7033
3C33
1FF3
07E3
0003
0003
0003
0003
0003
ENDCHAR
STARTCHAR uni01A3
ENCODING 419
SWIDTH 642 0
DWIDTH 15 0
BBX 13 18 1 -5
BITMAP
1FF8
3FF8
7198
E198
C198
C198
C198
C198
C198
E198
7198
3F98
1F18
0018
0018
0018
0018
0018
ENDCHAR
STARTCHAR uni01B5
ENCODING 437
SWIDTH 611 0
DWIDTH 15 0
BBX 13 17 1 0
BITMAP
FFF8
FFF8
0030
0070
00E0
01C0
0380
7FF0
7FF0
0E00
1C00
3800
3000
6000
E000
FFF8
FFF8
ENDCHAR
STARTCHAR uni01B6
ENCODING 438
SWIDTH 480 0
DWIDTH 12 0
BBX 10 13 1 0
BITMAP
FFC0
FFC0
0180
0300
0600
7F80
7F80
3800
3000
6000
C000
FFC0
FFC0
ENDCHAR
STARTCHAR uni0259
ENCODING 601
SWIDTH 547 0
DWIDTH 13 0
BBX 11 13 1 0
BITMAP
1F00
7F80
61C0
C0E0
0060
0060
FFE0
FFE0
C060
C060
70C0
3F80
1F00
ENDCHAR
STARTCHAR circumflex
ENCODING 710
SWIDTH 222 0
DWIDTH 5 0
BBX 7 4 -1 14
BITMAP
38
2C
6C
C6
ENDCHAR
STARTCHAR caron
ENCODING 711
SWIDTH 222 0
DWIDTH 5 0
BBX 7 4 -1 14
BITMAP
C6
6C
3C
38
ENDCHAR
STARTCHAR breve
ENCODING 728
SWIDTH 222 0
DWIDTH 5 0
BBX 7 3 -1 14
BITMAP
82
C6
7C
ENDCHAR
STARTCHAR dotaccent
ENCODING 729
SWIDTH 222 0
DWIDTH 5 0
BBX 2 3 2 14
BITMAP
C0
C0
C0
ENDCHAR
STARTCHAR ring
ENCODING 730
SWIDTH 222 0
DWIDTH 5 0
BBX 5 6 0 13
BITMAP
70
C8
88
88
C8
70
ENDCHAR
STARTCHAR ogonek
ENCODING 731
SWIDTH 222 0
DWIDTH 5 0
BBX 5 5 2 -5
BITMAP
30
40
C0
D0
F8
ENDCHAR
STARTCHAR tilde
ENCODING 732
SWIDTH 222 0
DWIDTH 5 0
BBX 8 3 -1 14
BITMAP
73
FE
8E
ENDCHAR
STARTCHAR hungarumlaut
ENCODING 733
SWIDTH 222 0
DWIDTH 5 0
BBX 8 3 -1 14
BITMAP
77
66
CC
ENDCHAR
STARTCHAR gravecmb
ENCODING 768
SWIDTH 0 0
DWIDTH 0 0
BBX 5 4 -6 14
BITMAP
E0
30
30
18
ENDCHAR
STARTCHAR acutecmb
ENCODING 769
SWIDTH 0 0
DWIDTH 0 0
BBX 5 4 -4 14
BITMAP
38
70
60
C0
ENDCHAR
STARTCHAR circumflexcmb
ENCODING 770
SWIDTH 0 0
DWIDTH 0 0
BBX 7 4 -6 14
BITMAP
38
2C
6C
C6
ENDCHAR
STARTCHAR tildecmb
ENCODING 771
SWIDTH 0 0
DWIDTH 0 0
BBX 8 3 -6 14
BITMAP
73
FE
8E
ENDCHAR
STARTCHAR macroncmb
ENCODING 772
SWIDTH 0 0
DWIDTH 0 0
BBX 8 1 -6 15
BITMAP
FF
ENDCHAR
STARTCHAR brevecmb
ENCODING 774
SWIDTH 0 0
DWIDTH 0 0
BBX 7 3 -6 14
BITMAP
82
C6
7C
ENDCHAR
STARTCHAR dotaccentcmb
ENCODING 775
SWIDTH 0 0
DWIDTH 0 0
BBX 2 3 -3 14
BITMAP
C0
C0
C0
ENDCHAR
STARTCHAR dieresiscmb
ENCODING 776
SWIDTH 0 0
DWIDTH 0 0
BBX 7 3 -6 14
BITMAP
C6
C6
C6
ENDCHAR
STARTCHAR ringcmb
ENCODING 778
SWIDTH 0 0
DWIDTH 0 0
BBX 5 6 -5 13
BITMAP
70
C8
88
88
C8
70
ENDCHAR
STARTCHAR hungarumlautcmb
ENCODING 779
SWIDTH 0 0
DWIDTH 0 0
BBX 8 3 -6 14
BITMAP
77
66
CC
ENDCHAR
STARTCHAR caroncmb
ENCODING 780
SWIDTH 0 0
DWIDTH 0 0
BBX 7 4 -6 14
BITMAP
C6
6C
3C
38
ENDCHAR
STARTCHAR cedillacmb
ENCODING 807
SWIDTH 0 0
DWIDTH 0 0
BBX 5 5 -5 -5
BITMAP
20
78
98
98
F0
ENDCHAR
STARTCHAR ogonekcmb
ENCODING 808
SWIDTH 0 0
DWIDTH 0 0
BBX 5 5 -3 -5
BITMAP
30
40
C0
D0
F8
ENDCHAR
STARTCHAR soliduslongoverlaycmb
ENCODING 824
SWIDTH 0 0
DWIDTH 0 0
BBX 8 18 -8 0
BITMAP
03
03
02
06
06
04
0C
08
18
18
10
30
20
60
60
40
C0
C0
ENDCHAR
STARTCHAR Omegagreek
ENCODING 937
SWIDTH 740 0
DWIDTH 18 0
BBX 16 17 1 0
BITMAP
07E0
1FF8
383C
700E
6006
E006
E007
C007
E006
6006
600E
301C
1C78
0460
0460
FC7F
FC7F
ENDCHAR
STARTCHAR pi
ENCODING 960
SWIDTH 622 0
DWIDTH 15 0
BBX 13 13 1 0
BITMAP
FFF8
FFF8
6060
6060
6060
6060
6060
6060
6060
6060
6060
6078
6038
ENDCHAR
STARTCHAR uni0400
ENCODING 1024
SWIDTH 611 0
DWIDTH 15 0
BBX 12 22 2 0
BITMAP
1C00
0C00
0600
0000
0000
FFF0
FFF0
C000
C000
C000
C000
C000
FFE0
FFE0
C000
C000
C000
C000
C000
C000
FFF0
FFF0
ENDCHAR
STARTCHAR afii10023
ENCODING 1025
SWIDTH 611 0
DWIDTH 15 0
BBX 12 21 2 0
BITMAP
3980
3980
3980
0000
FFF0
FFF0
C000
C000
C000
C000
C000
FFE0
FFE0
C000
C000
C000
C000
C000
C000
FFF0
FFF0
ENDCHAR
STARTCHAR afii10051
ENCODING 1026
SWIDTH 750 0
DWIDTH 18 0
BBX 17 17 0 0
BITMAP
FFFC00
FFFC00
060000
060000
060000
060000
067C00
06FF00
078700
070380
070180
060180
060180
060380
060700
063F00
063C00
ENDCHAR
STARTCHAR afii10052
ENCODING 1027
SWIDTH 550 0
DWIDTH 13 0
BBX 11 22 2 0
BITMAP
0380
0700
0600
0800
0000
FFE0
FFE0
C000
C000
C000
C000
C000
C000
C000
C000
C000
C000
C000
C000
C000
C000
C000
ENDCHAR
STARTCHAR afii10053
ENCODING 1028
SWIDTH 718 0
DWIDTH 17 0
BBX 15 18 1 0
BITMAP
07E0
1FF8
3C3C
700E
6006
E000
E000
C000
FFC0
FFC0
C000
C000
E006
600E
700C
383C
1FF8
07E0
ENDCHAR
STARTCHAR afii10054
ENCODING 1029
SWIDTH 648 0
DWIDTH 16 0
BBX 14 18 1 0
BITMAP
0FC0
3FE0
7070
6038
E018
E000
7000
7C00
1FC0
03F0
0038
0018
C01C
C01C
E018
7038
3FF0
0FC0
ENDCHAR
STARTCHAR afii10055
ENCODING 1030
SWIDTH 259 0
DWIDTH 6 0
BBX 2 17 2 0
BITMAP
C0
C0
C0
C0
C0
C0
C0
C0
C0
C0
C0
C0
C0
C0
C0
C0
C0
ENDCHAR
STARTCHAR afii10056
ENCODING 1031
SWIDTH 259 0
DWIDTH 6 0
BBX 6 21 0 0
BITMAP
CC
CC
CC
00
30
30
30
30
30
30
30
30
30
30
30
30
30
30
30
30
30
ENDCHAR
STARTCHAR afii10057
ENCODING 1032
SWIDTH 519 0
DWIDTH 12 0
BBX 10 17 1 0
BITMAP
01C0
01C0
01C0
01C0
01C0
01C0
01C0
01C0
01C0
01C0
01C0
C1C0
C1C0
C180
E380
7F80
3E00
ENDCHAR
STARTCHAR afii10058
ENCODING 1033
SWIDTH 1105 0
DWIDTH 27 0
BBX 26 17 0 0
BITMAP
0FFE0000
0FFE0000
0C060000
0C060000
0C060000
0C060000
0C060000
0C07FE00
0C07FF00
0C060380
0C060180
0C0601C0
1C0601C0
18060180
18060380
F807FF00
E007FE00
ENDCHAR
STARTCHAR afii10059
ENCODING 1034
SWIDTH 1124 0
DWIDTH 27 0
BBX 24 17 2 0
BITMAP
C01800
C01800
C01800
C01800
C01800
C01800
C01800
FFFFF8
FFFFFE
C0180F
C01807
C01803
C01803
C01807
C0180F
C01FFE
C01FF8
ENDCHAR
STARTCHAR afii10060
ENCODING 1035
SWIDTH 750 0
DWIDTH 18 0
BBX 17 17 0 0
BITMAP
FFFC00
FFFC00
060000
060000
060000
060000
06FC00
07FF00
070700
060380
060180
060180
060180
060180
060180
060180
060180
ENDCHAR
STARTCHAR afii10061
ENCODING 1036
SWIDTH 667 0
DWIDTH 16 0
BBX 14 22 2 0
BITMAP
01C0
0300
0300
0400
0000
C03C
C070
C0E0
C1C0
C380
C700
CE00
DE00
FF00
F380
E180
C1C0
C0E0
C070
C070
C038
C01C
ENDCHAR
STARTCHAR uni040D
ENCODING 1037
SWIDTH 730 0
DWIDTH 18 0
BBX 14 22 2 0
BITMAP
0E00
0600
0300
0000
0000
C03C
C03C
C07C
C07C
C0DC
C1DC
C19C
C31C
C31C
C61C
CE1C
CC1C
D81C
D81C
F01C
F01C
E01C
ENDCHAR
STARTCHAR afii10062
ENCODING 1038
SWIDTH 611 0
DWIDTH 15 0
BBX 15 21 0 0
BITMAP
0C60
0FE0
07C0
0000
E00E
601C
3018
3038
3830
1870
1C60
0C60
0EC0
06C0
0780
0380
0300
0700
0600
7E00
7800
ENDCHAR
STARTCHAR afii10145
ENCODING 1039
SWIDTH 712 0
DWIDTH 17 0
BBX 13 21 2 -4
BITMAP
C018
C018
C018
C018
C018
C018
C018
C018
C018
C018
C018
C018
C018
C018
C018
FFF8
FFF8
0700
0700
0700
0700
ENDCHAR
STARTCHAR afii10017
ENCODING 1040
SWIDTH 648 0
DWIDTH 16 0
BBX 16 17 0 0
BITMAP
0380
03C0
03C0
06C0
0660
0C60
0C70
0C30
1830
1838
3FF8
3FFC
300C
700C
600E
E006
C007
ENDCHAR
STARTCHAR afii10018
ENCODING 1041
SWIDTH 675 0
DWIDTH 16 0
BBX 13 17 2 0
BITMAP
FFF0
FFF0
C000
C000
C000
C000
C000
FFC0
FFF0
C078
C018
C018
C018
C018
C038
FFF0
FFE0
ENDCHAR
STARTCHAR afii10019
ENCODING 1042
SWIDTH 685 0
DWIDTH 16 0
BBX 13 17 2 0
BITMAP
FFC0
FFF0
C070
C038
C038
C030
C070
FFE0
FFF0
C038
C018
C018
C018
C018
C038
FFF0
FFE0
ENDCHAR
STARTCHAR afii10020
ENCODING 1043
SWIDTH 550 0
DWIDTH 13 0
BBX 11 17 2 0
BITMAP
FFE0
FFE0
C000
C000
C000
C000
C000
C000
C000
C000
C000
C000
C000
C000
C000
C000
C000
ENDCHAR
STARTCHAR afii10021
ENCODING 1044
SWIDTH 729 0
DWIDTH 18 0
BBX 17 21 0 -4
BITMAP
0FFE00
0FFE00
0C0600
0C0600
0C0600
0C0600
0C0600
0C0600
0C0600
0C0600
1C0600
1C0600
180600
180600
380600
FFFF80
FFFF80
C00180
C00180
C00180
C00180
ENDCHAR
STARTCHAR afii10022
ENCODING 1045
SWIDTH 611 0
DWIDTH 15 0
BBX 12 17 2 0
BITMAP
FFF0
FFF0
C000
C000
C000
C000
C000
FFE0
FFE0
C000
C000
C000
C000
C000
C000
FFF0
FFF0
ENDCHAR
STARTCHAR afii10024
ENCODING 1046
SWIDTH 1011 0
DWIDTH 24 0
BBX 24 17 0 0
BITMAP
70180F
38181C
1C1838
0E1870
0718E0
0398C0
01D980
01FB80
03FFC0
033CE0
071860
0E1870
1C1838
18181C
38180C
70180E
E01807
ENDCHAR
STARTCHAR afii10025
ENCODING 1047
SWIDTH 654 0
DWIDTH 16 0
BBX 14 18 1 0
BITMAP
0FC0
3FF0
7870
6038
6018
0018
0038
0070
07E0
07F0
0038
0018
C01C
C01C
E018
7038
3FF0
0FC0
ENDCHAR
STARTCHAR afii10026
ENCODING 1048
SWIDTH 730 0
DWIDTH 18 0
BBX 14 17 2 0
BITMAP
C03C
C03C
C07C
C07C
C0DC
C1DC
C19C
C31C
C31C
C61C
CE1C
CC1C
D81C
D81C
F01C
F01C
E01C
ENDCHAR
STARTCHAR afii10027
ENCODING 1049
SWIDTH 730 0
DWIDTH 18 0
BBX 14 21 2 0
BITMAP
1840
0FC0
0780
0000
C03C
C03C
C07C
C07C
C0DC
C1DC
C19C
C31C
C31C
C61C
CE1C
CC1C
D81C
D81C
F01C
F01C
E01C
ENDCHAR
STARTCHAR afii10028
ENCODING 1050
SWIDTH 667 0
DWIDTH 16 0
BBX 14 17 2 0
BITMAP
C03C
C070
C0E0
C1C0
C380
C700
CE00
DE00
FF00
F380
E180
C1C0
C0E0
C060
C070
C038
C01C
ENDCHAR
STARTCHAR afii10029
ENCODING 1051
SWIDTH 703 0
DWIDTH 17 0
BBX 15 17 0 0
BITMAP
0FFE
0FFE
0C06
0C06
0C06
0C06
0C06
0C06
0C06
0C06
0C06
0C06
1C06
1806
1806
F806
E006
ENDCHAR
STARTCHAR afii10030
ENCODING 1052
SWIDTH 871 0
DWIDTH 21 0
BBX 17 17 2 0
BITMAP
E00380
F00780
F00780
F00780
D80D80
D80D80
C81980
CC1980
CC1980
C63180
C63180
C67180
C36180
C36180
C1C180
C1C180
C1C180
ENDCHAR
STARTCHAR afii10031
ENCODING 1053
SWIDTH 722 0
DWIDTH 17 0
BBX 13 17 2 0
BITMAP
C018
C018
C018
C018
C018
C018
C018
FFF8
FFF8
C018
C018
C018
C018
C018
C018
C018
C018
ENDCHAR
STARTCHAR afii10032
ENCODING 1054
SWIDTH 760 0
DWIDTH 18 0
BBX 16 18 1 0
BITMAP
07E0
1FF8
3C3C
700E
6006
E007
E003
C003
C003
C003
C003
E003
E007
6006
700E
3C3C
1FF8
07E0
ENDCHAR
STARTCHAR afii10033
ENCODING 1055
SWIDTH 712 0
DWIDTH 17 0
BBX 13 17 2 0
BITMAP
FFF8
FFF8
C018
C018
C018
C018
C018
C018
C018
C018
C018
C018
C018
C018
C018
C018
C018
ENDCHAR
STARTCHAR afii10034
ENCODING 1056
SWIDTH 648 0
DWIDTH 16 0
BBX 13 17 2 0
BITMAP
FFC0
FFE0
C070
C030
C038
C038
C030
C070
FFE0
FFC0
C000
C000
C000
C000
C000
C000
C000
ENDCHAR
STARTCHAR afii10035
ENCODING 1057
SWIDTH 722 0
DWIDTH 17 0
BBX 15 18 1 0
BITMAP
07E0
1FF8
3C3C
700C
600E
6006
E000
C000
C000
C000
C000
E006
E006
600E
700C
3C3C
1FF8
07E0
ENDCHAR
STARTCHAR afii10036
ENCODING 1058
SWIDTH 574 0
DWIDTH 14 0
BBX 14 17 0 0
BITMAP
FFFC
FFFC
0300
0300
0300
0300
0300
0300
0300
0300
0300
0300
0300
0300
0300
0300
0300
ENDCHAR
STARTCHAR afii10037
ENCODING 1059
SWIDTH 611 0
DWIDTH 15 0
BBX 15 17 0 0
BITMAP
E00E
600C
7018
3018
3830
1830
1C60
0C60
0EC0
06C0
0780
0380
0300
0700
0600
7E00
7800
ENDCHAR
STARTCHAR afii10038
ENCODING 1060
SWIDTH 821 0
DWIDTH 20 0
BBX 18 18 1 0
BITMAP
00C000
00C000
0FF800
3FFE00
78C700
60C380
E0C1C0
C0C1C0
C0C0C0
C0C0C0
C0C0C0
E0C1C0
60C380
78C780
3FFE00
0FF800
00C000
00C000
ENDCHAR
STARTCHAR afii10039
ENCODING 1061
SWIDTH 611 0
DWIDTH 15 0
BBX 15 17 0 0
BITMAP
E01C
7018
3838
1870
1C60
0EE0
07C0
0780
0380
07C0
0EC0
0CE0
1C70
3830
3038
701C
E00E
ENDCHAR
STARTCHAR afii10040
ENCODING 1062
SWIDTH 720 0
DWIDTH 17 0
BBX 15 21 2 -4
BITMAP
C018
C018
C018
C018
C018
C018
C018
C018
C018
C018
C018
C018
C018
C018
C018
FFFE
FFFE
0006
0006
0006
0006
ENDCHAR
STARTCHAR afii10041
ENCODING 1063
SWIDTH 658 0
DWIDTH 16 0
BBX 13 17 1 0
BITMAP
C018
C018
C018
C018
C018
C018
E018
7038
7FF8
1FD8
0018
0018
0018
0018
0018
0018
0018
ENDCHAR
STARTCHAR afii10042
ENCODING 1064
SWIDTH 1051 0
DWIDTH 25 0
BBX 21 17 2 0
BITMAP
C07018
C07018
C07018
C07018
C07018
C07018
C07018
C07018
C07018
C07018
C07018
C07018
C07018
C07018
C07018
FFFFF8
FFFFF8
ENDCHAR
STARTCHAR afii10043
ENCODING 1065
SWIDTH 1072 0
DWIDTH 26 0
BBX 23 21 2 -4
BITMAP
C07018
C07018
C07018
C07018
C07018
C07018
C07018
C07018
C07018
C07018
C07018
C07018
C07018
C07018
C07018
FFFFFE
FFFFFE
000006
000006
000006
000006
ENDCHAR
STARTCHAR afii10044
ENCODING 1066
SWIDTH 778 0
DWIDTH 19 0
BBX 18 17 0 0
BITMAP
FE0000
FE0000
060000
060000
060000
060000
060000
07FE00
07FF80
060380
0601C0
0601C0
0601C0
0601C0
060380
07FF80
07FE00
ENDCHAR
STARTCHAR afii10045
ENCODING 1067
SWIDTH 872 0
DWIDTH 21 0
BBX 17 17 2 0
BITMAP
C00180
C00180
C00180
C00180
C00180
C00180
C00180
FFC180
FFE180
C07180
C03180
C03180
C03980
C03180
C07180
FFE180
FFC180
ENDCHAR
STARTCHAR afii10046
ENCODING 1068
SWIDTH 653 0
DWIDTH 16 0
BBX 13 17 2 0
BITMAP
C000
C000
C000
C000
C000
C000
C000
FFC0
FFF0
C070
C038
C038
C038
C038
C070
FFF0
FFC0
ENDCHAR
STARTCHAR afii10047
ENCODING 1069
SWIDTH 718 0
DWIDTH 17 0
BBX 15 18 1 0
BITMAP
0FC0
3FF0
7838
601C
E00C
000E
0006
0006
07FE
07FE
0006
0006
C006
E00C
701C
7838
3FF0
0FC0
ENDCHAR
STARTCHAR afii10048
ENCODING 1070
SWIDTH 1020 0
DWIDTH 24 0
BBX 22 18 2 0
BITMAP
001F00
C07FC0
C0E0E0
C1C070
C18038
C38018
C30018
C30018
FF001C
FF001C
C30018
C30018
C38018
C38038
C1C070
C0E0E0
C07FC0
C01F00
ENDCHAR
STARTCHAR afii10049
ENCODING 1071
SWIDTH 671 0
DWIDTH 16 0
BBX 14 17 0 0
BITMAP
0FFC
1FFC
380C
300C
700C
700C
300C
380C
1FFC
0FFC
070C
0E0C
0C0C
1C0C
380C
700C
E00C
ENDCHAR
STARTCHAR afii10065
ENCODING 1072
SWIDTH 537 0
DWIDTH 13 0
BBX 12 13 1 0
BITMAP
1F00
7FC0
60C0
C0C0
00C0
03C0
3EC0
E0C0
C0C0
C0C0
E1C0
FFF0
3C70
ENDCHAR
STARTCHAR afii10066
ENCODING 1073
SWIDTH 573 0
DWIDTH 14 0
BBX 12 18 1 0
BITMAP
0060
0FE0
1FC0
3000
6000
4F80
5FC0
F0E0
E060
E070
C030
C030
C030
E070
6060
70E0
3FC0
1F80
ENDCHAR
STARTCHAR afii10067
ENCODING 1074
SWIDTH 540 0
DWIDTH 13 0
BBX 10 13 2 0
BITMAP
FF00
FF80
C180
C1C0
C180
C180
FF00
FF80
C1C0
C0C0
C1C0
FF80
FF00
ENDCHAR
STARTCHAR afii10068
ENCODING 1075
SWIDTH 424 0
DWIDTH 10 0
BBX 8 13 2 0
BITMAP
FF
FF
C0
C0
C0
C0
C0
C0
C0
C0
C0
C0
C0
ENDCHAR
STARTCHAR afii10069
ENCODING 1076
SWIDTH 589 0
DWIDTH 14 0
BBX 14 17 0 -4
BITMAP
1FF0
1FF0
1830
1830
1830
1830
1830
1830
3030
3030
3030
FFFC
FFFC
C00C
C00C
C00C
C00C
ENDCHAR
STARTCHAR afii10070
ENCODING 1077
SWIDTH 537 0
DWIDTH 13 0
BBX 11 13 1 0
BITMAP
1F00
3F80
71C0
E0E0
C060
C060
FFE0
FFE0
C000
C060
70E0
3FC0
1F00
ENDCHAR
STARTCHAR afii10072
ENCODING 1078
SWIDTH 783 0
DWIDTH 19 0
BBX 19 12 0 0
BITMAP
70C1C0
38C380
1CC700
0CCE00
06DC00
07FC00
0DFE00
1CE600
18C300
30C380
70C1C0
E0C0E0
ENDCHAR
STARTCHAR afii10073
ENCODING 1079
SWIDTH 506 0
DWIDTH 12 0
BBX 10 13 1 0
BITMAP
3F00
7F80
E1C0
C0C0
00C0
0180
0F00
0F80
00C0
C0C0
E1C0
7F80
3F00
ENDCHAR
STARTCHAR afii10074
ENCODING 1080
SWIDTH 566 0
DWIDTH 14 0
BBX 10 12 2 0
BITMAP
C1C0
C1C0
C3C0
C6C0
C6C0
CCC0
C8C0
D8C0
F0C0
F0C0
E0C0
C0C0
ENDCHAR
STARTCHAR afii10075
ENCODING 1081
SWIDTH 566 0
DWIDTH 14 0
BBX 10 17 2 0
BITMAP
6100
3F00
1E00
0000
0000
C1C0
C3C0
C3C0
C6C0
C6C0
CCC0
D8C0
D8C0
F0C0
F0C0
E0C0
C0C0
ENDCHAR
STARTCHAR afii10076
ENCODING 1082
SWIDTH 526 0
DWIDTH 13 0
BBX 11 12 2 0
BITMAP
C1C0
C300
C600
CC00
D800
FC00
EC00
C600
C700
C380
C180
C0E0
ENDCHAR
STARTCHAR afii10077
ENCODING 1083
SWIDTH 563 0
DWIDTH 14 0
BBX 12 13 0 0
BITMAP
1FF0
1FF0
1830
1830
1830
1830
1830
1830
1830
1830
3830
F030
E030
ENDCHAR
STARTCHAR afii10078
ENCODING 1084
SWIDTH 688 0
DWIDTH 17 0
BBX 13 12 2 0
BITMAP
E038
E078
E078
F078
F0D8
D8D8
D898
C998
CD98
CF18
C718
C618
ENDCHAR
STARTCHAR afii10079
ENCODING 1085
SWIDTH 560 0
DWIDTH 13 0
BBX 10 12 2 0
BITMAP
C0C0
C0C0
C0C0
C0C0
FFC0
FFC0
C0C0
C0C0
C0C0
C0C0
C0C0
C0C0
ENDCHAR
STARTCHAR afii10080
ENCODING 1086
SWIDTH 574 0
DWIDTH 14 0
BBX 12 13 1 0
BITMAP
1F00
3FC0
70E0
E060
C070
C030
C030
C030
C070
E060
70E0
3FC0
1F00
ENDCHAR
STARTCHAR afii10081
ENCODING 1087
SWIDTH 550 0
DWIDTH 13 0
BBX 10 13 2 0
BITMAP
FFC0
FFC0
C0C0
C0C0
C0C0
C0C0
C0C0
C0C0
C0C0
C0C0
C0C0
C0C0
C0C0
ENDCHAR
STARTCHAR afii10082
ENCODING 1088
SWIDTH 593 0
DWIDTH 14 0
BBX 11 18 2 -5
BITMAP
DF00
FF80
E1C0
C0E0
C060
C060
C060
C060
C060
C0E0
E1C0
FFC0
DF00
C000
C000
C000
C000
C000
ENDCHAR
STARTCHAR afii10083
ENCODING 1089
SWIDTH 537 0
DWIDTH 13 0
BBX 11 13 1 0
BITMAP
1F00
3FC0
70E0
E060
C000
C000
C000
C000
C060
E060
70C0
3FC0
1F00
ENDCHAR
STARTCHAR afii10084
ENCODING 1090
SWIDTH 463 0
DWIDTH 11 0
BBX 11 13 0 0
BITMAP
FFE0
FFE0
0600
0600
0600
0600
0600
0600
0600
0600
0600
0600
0600
ENDCHAR
STARTCHAR afii10085
ENCODING 1091
SWIDTH 500 0
DWIDTH 12 0
BBX 12 17 0 -5
BITMAP
E070
6060
6060
30C0
30C0
30C0
1980
1980
0D00
0F00
0700
0600
0600
0E00
0C00
7C00
7800
ENDCHAR
STARTCHAR afii10086
ENCODING 1092
SWIDTH 800 0
DWIDTH 19 0
BBX 17 22 1 -5
BITMAP
00C000
00C000
00C000
00C000
1CDE00
7FFF00
71C300
E0C180
C0C180
C0C180
C0C180
C0C180
C0C180
E0C380
71C300
7FFF00
1CDC00
00C000
00C000
00C000
00C000
00C000
ENDCHAR
STARTCHAR afii10087
ENCODING 1093
SWIDTH 518 0
DWIDTH 12 0
BBX 12 12 0 0
BITMAP
7070
30E0
39C0
1D80
0F00
0600
0F00
0F80
19C0
30C0
7060
E070
ENDCHAR
STARTCHAR afii10088
ENCODING 1094
SWIDTH 564 0
DWIDTH 14 0
BBX 11 16 2 -4
BITMAP
C180
C180
C180
C180
C180
C180
C180
C180
C180
C180
FFE0
FFE0
0060
0060
0060
0060
ENDCHAR
STARTCHAR afii10089
ENCODING 1095
SWIDTH 523 0
DWIDTH 13 0
BBX 10 12 1 0
BITMAP
C0C0
C0C0
C0C0
C0C0
C0C0
E0C0
7FC0
3EC0
00C0
00C0
00C0
00C0
ENDCHAR
STARTCHAR afii10090
ENCODING 1096
SWIDTH 809 0
DWIDTH 19 0
BBX 16 12 2 0
BITMAP
C183
C183
C183
C183
C183
C183
C183
C183
C183
C183
FFFF
FFFF
ENDCHAR
STARTCHAR afii10091
ENCODING 1097
SWIDTH 831 0
DWIDTH 20 0
BBX 18 16 2 -4
BITMAP
C18300
C18300
C18300
C18300
C18300
C18300
C18300
C18300
C18300
C18300
FFFFC0
FFFFC0
0000C0
0000C0
0000C0
0000C0
ENDCHAR
STARTCHAR afii10092
ENCODING 1098
SWIDTH 617 0
DWIDTH 15 0
BBX 14 13 0 0
BITMAP
FC00
FC00
0C00
0C00
0C00
0FF0
0FF8
0C1C
0C0C
0C0C
0C1C
0FF8
0FF0
ENDCHAR
STARTCHAR afii10093
ENCODING 1099
SWIDTH 708 0
DWIDTH 17 0
BBX 13 12 2 0
BITMAP
C018
C018
C018
C018
FF18
FF98
C198
C198
C198
C198
FF98
FF18
ENDCHAR
STARTCHAR afii10094
ENCODING 1100
SWIDTH 534 0
DWIDTH 13 0
BBX 10 12 2 0
BITMAP
C000
C000
C000
C000
FF00
FF80
C1C0
C0C0
C0C0
C1C0
FF80
FF00
ENDCHAR
STARTCHAR afii10095
ENCODING 1101
SWIDTH 537 0
DWIDTH 13 0
BBX 11 13 1 0
BITMAP
3F00
7F80
E1C0
C0E0
00E0
0060
0FE0
0FE0
0060
C0C0
E1C0
7F80
3F00
ENDCHAR
STARTCHAR afii10096
ENCODING 1102
SWIDTH 774 0
DWIDTH 19 0
BBX 16 14 2 -1
BITMAP
00F0
C3FC
C70E
C606
CE06
CC07
FC03
FC07
CE06
CE06
C70E
C3FC
C1F0
C000
ENDCHAR
STARTCHAR afii10097
ENCODING 1103
SWIDTH 536 0
DWIDTH 13 0
BBX 11 13 0 0
BITMAP
1FE0
3FE0
7060
6060
6060
7060
3FE0
1FE0
0C60
1860
3860
7060
E060
ENDCHAR
STARTCHAR uni0450
ENCODING 1104
SWIDTH 537 0
DWIDTH 13 0
BBX 11 18 1 0
BITMAP
1C00
0C00
0600
0000
0000
1F00
3F80
71C0
E0E0
C060
C060
FFE0
FFE0
C000
C060
70E0
3FC0
1F00
ENDCHAR
STARTCHAR afii10071
ENCODING 1105
SWIDTH 537 0
DWIDTH 13 0
BBX 11 17 1 0
BITMAP
3180
3180
3180
0000
1F00
3F80
71C0
E0E0
C060
C060
FFE0
FFE0
C000
C060
70E0
3FC0
1F00
ENDCHAR
STARTCHAR afii10099
ENCODING 1106
SWIDTH 566 0
DWIDTH 14 0
BBX 12 22 0 -5
BITMAP
3000
3000
FF80
FF80
33C0
3FE0
3870
3030
3030
3030
3030
3030
3030
3030
3030
3030
3030
0030
0030
0060
07E0
0780
ENDCHAR
STARTCHAR afii10100
ENCODING 1107
SWIDTH 424 0
DWIDTH 10 0
BBX 8 18 2 0
BITMAP
0E
1C
18
30
00
FF
FF
C0
C0
C0
C0
C0
C0
C0
C0
C0
C0
C0
ENDCHAR
STARTCHAR afii10101
ENCODING 1108
SWIDTH 537 0
DWIDTH 13 0
BBX 11 13 1 0
BITMAP
1F00
3FC0
70E0
E060
C000
C000
FE00
FE00
C000
C060
70E0
3FC0
1F80
ENDCHAR
STARTCHAR afii10102
ENCODING 1109
SWIDTH 500 0
DWIDTH 12 0
BBX 10 13 1 0
BITMAP
3F00
7F80
E180
C0C0
E000
7800
1F80
03C0
00C0
C0C0
E1C0
7F80
3F00
ENDCHAR
STARTCHAR afii10103
ENCODING 1110
SWIDTH 222 0
DWIDTH 5 0
BBX 2 17 2 0
BITMAP
C0
C0
C0
00
00
C0
C0
C0
C0
C0
C0
C0
C0
C0
C0
C0
C0
ENDCHAR
STARTCHAR afii10104
ENCODING 1111
SWIDTH 222 0
DWIDTH 5 0
BBX 7 17 -1 0
BITMAP
C6
C6
C6
00
00
18
18
18
18
18
18
18
18
18
18
18
18
ENDCHAR
STARTCHAR afii10105
ENCODING 1112
SWIDTH 222 0
DWIDTH 5 0
BBX 4 22 0 -5
BITMAP
30
30
30
00
00
30
30
30
30
30
30
30
30
30
30
30
30
30
30
70
E0
C0
ENDCHAR
STARTCHAR afii10106
ENCODING 1113
SWIDTH 879 0
DWIDTH 21 0
BBX 20 13 0 0
BITMAP
1FF000
1FF000
183000
183000
183000
183FC0
183FF0
183030
183030
183030
383030
F03FF0
E03FE0
ENDCHAR
STARTCHAR afii10107
ENCODING 1114
SWIDTH 876 0
DWIDTH 21 0
BBX 18 12 2 0
BITMAP
C0C000
C0C000
C0C000
C0C000
FFFF00
FFFFC0
C0C0C0
C0C0C0
C0C0C0
C0C0C0
C0FFC0
C0FF80
ENDCHAR
STARTCHAR afii10108
ENCODING 1115
SWIDTH 566 0
DWIDTH 14 0
BBX 12 17 0 0
BITMAP
3000
3000
FF80
FF80
33C0
37E0
3C70
3030
3030
3030
3030
3030
3030
3030
3030
3030
3030
ENDCHAR
STARTCHAR afii10109
ENCODING 1116
SWIDTH 526 0
DWIDTH 13 0
BBX 11 18 2 0
BITMAP
0700
0E00
0C00
1800
0000
C1C0
C380
C700
CE00
DC00
F800
FC00
EE00
C600
C700
C380
C1C0
C0E0
ENDCHAR
STARTCHAR uni045D
ENCODING 1117
SWIDTH 566 0
DWIDTH 14 0
BBX 10 18 2 0
BITMAP
3800
1800
0C00
0600
0000
0000
C1C0
C3C0
C3C0
C6C0
C4C0
CCC0
D8C0
D8C0
F0C0
F0C0
E0C0
C0C0
ENDCHAR
STARTCHAR afii10110
ENCODING 1118
SWIDTH 500 0
DWIDTH 12 0
BBX 12 22 0 -5
BITMAP
10C0
1F80
0F00
0000
E030
6060
6060
7060
30C0
30C0
18C0
1980
1980
0D00
0F00
0700
0600
0600
0C00
0C00
7800
7800
ENDCHAR
STARTCHAR afii10193
ENCODING 1119
SWIDTH 550 0
DWIDTH 13 0
BBX 10 16 2 -4
BITMAP
C0C0
C0C0
C0C0
C0C0
C0C0
C0C0
C0C0
C0C0
C0C0
C0C0
FFC0
FFC0
0C00
0C00
0C00
0C00
ENDCHAR
STARTCHAR afii10146
ENCODING 1122
SWIDTH 730 0
DWIDTH 18 0
BBX 17 17 0 0
BITMAP
0C0000
0C0000
FFF000
FFF000
0C0000
0C0000
0C0000
0FFC00
0FFE00
0C0700
0C0300
0C0380
0C0380
0C0300
0C0700
0FFE00
0FFC00
ENDCHAR
STARTCHAR afii10194
ENCODING 1123
SWIDTH 581 0
DWIDTH 14 0
BBX 13 17 0 0
BITMAP
1800
1800
1800
1800
FF80
FF80
1800
1800
1800
1FE0
1FF8
1818
1818
1818
1818
1FF8
1FE0
ENDCHAR
STARTCHAR uni046A
ENCODING 1130
SWIDTH 935 0
DWIDTH 22 0
BBX 19 17 2 0
BITMAP
3FFF00
1FFE00
0C0E00
060C00
071800
033000
01B000
3FFF00
7FFFC0
E0C1C0
C0C0E0
C0C060
C0C060
C0C060
C0C060
C0C060
C0C060
ENDCHAR
STARTCHAR uni046B
ENCODING 1131
SWIDTH 729 0
DWIDTH 18 0
BBX 15 13 1 0
BITMAP
3FF8
1FF0
0C30
0E60
06C0
03C0
3FFC
7FFE
E186
C186
C186
C186
C186
ENDCHAR
STARTCHAR afii10147
ENCODING 1138
SWIDTH 760 0
DWIDTH 18 0
BBX 16 18 1 0
BITMAP
07E0
1FF8
3C1C
700E
6006
E007
E003
CE03
FF87
F1FF
C07B
C003
E007
6006
700E
3C1C
1FF8
07E0
ENDCHAR
STARTCHAR afii10195
ENCODING 1139
SWIDTH 574 0
DWIDTH 14 0
BBX 12 13 1 0
BITMAP
1F00
3FC0
70E0
E060
E070
C030
FC70
C3B0
C030
E060
70E0
3FC0
1F00
ENDCHAR
STARTCHAR afii10148
ENCODING 1140
SWIDTH 667 0
DWIDTH 16 0
BBX 16 17 0 0
BITMAP
E007
E00F
601C
7018
3018
3030
3830
1830
1860
1C60
0C60
0CC0
0CC0
06C0
0680
0780
0380
ENDCHAR
STARTCHAR afii10196
ENCODING 1141
SWIDTH 530 0
DWIDTH 13 0
BBX 13 13 0 0
BITMAP
E038
6078
6060
70C0
30C0
30C0
1980
1980
1980
0F00
0F00
0F00
0600
ENDCHAR
STARTCHAR uni048C
ENCODING 1164
SWIDTH 730 0
DWIDTH 18 0
BBX 17 20 0 0
BITMAP
0C0000
0C0000
0C0000
FFC000
FFC000
0C0000
0C0000
0C0000
0C0000
0C0000
0FFC00
0FFE00
0C0700
0C0300
0C0380
0C0380
0C0300
0C0700
0FFE00
0FFC00
ENDCHAR
STARTCHAR uni048D
ENCODING 1165
SWIDTH 565 0
DWIDTH 14 0
BBX 13 15 0 0
BITMAP
3000
3000
FE00
FE00
3000
3000
3000
3FE0
3FF0
3038
3018
3018
3038
3FF0
3FE0
ENDCHAR
STARTCHAR afii10050
ENCODING 1168
SWIDTH 550 0
DWIDTH 13 0
BBX 11 21 2 0
BITMAP
0060
0060
0060
0060
FFE0
FFE0
C000
C000
C000
C000
C000
C000
C000
C000
C000
C000
C000
C000
C000
C000
C000
ENDCHAR
STARTCHAR afii10098
ENCODING 1169
SWIDTH 424 0
DWIDTH 10 0
BBX 8 16 2 0
BITMAP
03
03
03
03
FF
FF
C0
C0
C0
C0
C0
C0
C0
C0
C0
C0
ENDCHAR
STARTCHAR uni0492
ENCODING 1170
SWIDTH 611 0
DWIDTH 15 0
BBX 14 17 1 0
BITMAP
3FFC
3FFC
3800
3800
3800
3800
3800
FFC0
FFC0
3800
3800
3800
3800
3800
3800
3800
3800
ENDCHAR
STARTCHAR uni0493
ENCODING 1171
SWIDTH 471 0
DWIDTH 11 0
BBX 11 13 0 0
BITMAP
1FE0
1FE0
1800
1800
1800
1800
FF80
FF80
1800
1800
1800
1800
1800
ENDCHAR
STARTCHAR uni0496
ENCODING 1174
SWIDTH 1026 0
DWIDTH 25 0
BBX 25 21 0 -4
BITMAP
70180F00
38181C00
1C183800
0E187000
0718E000
0399C000
01D98000
01FB8000
03FFC000
033CE000
06186000
0E183000
1C183800
38181C00
30180E00
70180780
E0180780
00000180
00000180
00000180
00000180
ENDCHAR
STARTCHAR uni0497
ENCODING 1175
SWIDTH 797 0
DWIDTH 19 0
BBX 19 16 0 -4
BITMAP
70C1C0
38C380
18C700
0CCE00
06CC00
07DC00
0DEE00
1CC600
18C300
30C180
70C1E0
E0C0E0
000060
000060
000060
000060
ENDCHAR
STARTCHAR uni0498
ENCODING 1176
SWIDTH 654 0
DWIDTH 16 0
BBX 14 23 1 -5
BITMAP
0FC0
3FF0
7870
6038
6018
0018
0038
0070
07E0
07F0
0038
0018
C01C
C01C
E018
7038
3FF0
0FC0
0200
0780
0180
0180
0F00
ENDCHAR
STARTCHAR uni0499
ENCODING 1177
SWIDTH 506 0
DWIDTH 12 0
BBX 10 18 1 -5
BITMAP
3F00
7F80
E1C0
C0C0
00C0
0180
0F00
0F80
00C0
C0C0
E1C0
7F80
3F00
0800
1E00
0600
0600
3C00
ENDCHAR
STARTCHAR uni049A
ENCODING 1178
SWIDTH 684 0
DWIDTH 16 0
BBX 15 21 2 -4
BITMAP
C03C
C070
C0E0
C1C0
C380
C700
CE00
DE00
FF00
F380
E180
C1C0
C0E0
C070
C030
C03E
C01E
000E
000E
000E
000E
ENDCHAR
STARTCHAR uni049B
ENCODING 1179
SWIDTH 540 0
DWIDTH 13 0
BBX 11 16 2 -4
BITMAP
C1C0
C300
C600
CC00
D800
FC00
EC00
CE00
C700
C380
C1E0
C1E0
0060
0060
0060
0060
ENDCHAR
STARTCHAR uni049C
ENCODING 1180
SWIDTH 670 0
DWIDTH 16 0
BBX 14 17 2 0
BITMAP
C01C
C038
C070
C860
C8C0
C9C0
CB80
FF00
FF00
CB80
C980
C9C0
C8E0
C070
C030
C038
C01C
ENDCHAR
STARTCHAR uni049D
ENCODING 1181
SWIDTH 551 0
DWIDTH 13 0
BBX 11 12 2 0
BITMAP
C0E0
C1C0
D380
D700
FE00
FC00
D600
D700
D380
C180
C0C0
C0E0
ENDCHAR
STARTCHAR uni04A0
ENCODING 1184
SWIDTH 792 0
DWIDTH 19 0
BBX 19 17 0 0
BITMAP
FE01E0
FE0380
060700
060E00
061C00
063800
067000
06F000
07F800
079C00
070C00
060E00
060700
060300
060380
0601C0
0600E0
ENDCHAR
STARTCHAR uni04A1
ENCODING 1185
SWIDTH 614 0
DWIDTH 15 0
BBX 15 13 0 0
BITMAP
FC1C
FC38
0C70
0CE0
0DC0
0F80
0FC0
0EE0
0C70
0C30
0C38
0C1C
0C0E
ENDCHAR
STARTCHAR uni04A2
ENCODING 1186
SWIDTH 739 0
DWIDTH 18 0
BBX 15 21 2 -4
BITMAP
C018
C018
C018
C018
C018
C018
C018
FFF8
FFF8
C018
C018
C018
C018
C018
C018
C01E
C01E
0006
0006
0006
0006
ENDCHAR
STARTCHAR uni04A3
ENCODING 1187
SWIDTH 582 0
DWIDTH 14 0
BBX 12 16 2 -4
BITMAP
C0C0
C0C0
C0C0
C0C0
FFC0
FFC0
C0C0
C0C0
C0C0
C0C0
C0F0
C0F0
0030
0030
0030
0030
ENDCHAR
STARTCHAR uni04A4
ENCODING 1188
SWIDTH 1015 0
DWIDTH 24 0
BBX 22 17 2 0
BITMAP
C01FFC
C01FFC
C01800
C01800
C01800
C01800
C01800
FFF800
FFF800
C01800
C01800
C01800
C01800
C01800
C01800
C01800
C01800
ENDCHAR
STARTCHAR uni04A5
ENCODING 1189
SWIDTH 769 0
DWIDTH 18 0
BBX 16 13 2 0
BITMAP
C0FF
C0FF
C0C0
C0C0
C0C0
FFC0
FFC0
C0C0
C0C0
C0C0
C0C0
C0C0
C0C0
ENDCHAR
STARTCHAR uni04AA
ENCODING 1194
SWIDTH 722 0
DWIDTH 17 0
BBX 15 23 1 -5
BITMAP
07E0
1FF8
3C3C
700C
600E
6006
E000
C000
C000
C000
C000
E006
E006
600E
700C
3C3C
1FF8
07E0
0100
03C0
0060
0060
03C0
ENDCHAR
STARTCHAR uni04AB
ENCODING 1195
SWIDTH 537 0
DWIDTH 13 0
BBX 11 18 1 -5
BITMAP
1F00
3FC0
70E0
E060
C000
C000
C000
C000
C060
E060
70C0
3FC0
1F00
0400
0F00
0300
0300
1E00
ENDCHAR
STARTCHAR uni04AE
ENCODING 1198
SWIDTH 648 0
DWIDTH 16 0
BBX 16 17 0 0
BITMAP
E007
700E
301C
3818
1C38
0C70
0E60
07E0
03C0
0380
0180
0180
0180
0180
0180
0180
0180
ENDCHAR
STARTCHAR uni04AF
ENCODING 1199
SWIDTH 500 0
DWIDTH 12 0
BBX 12 17 0 -5
BITMAP
E070
6060
6060
30C0
30C0
38C0
1980
1980
0D00
0F00
0700
0600
0600
0600
0600
0600
0600
ENDCHAR
STARTCHAR uni04B0
ENCODING 1200
SWIDTH 648 0
DWIDTH 16 0
BBX 16 17 0 0
BITMAP
E007
700E
301C
3818
1C38
0C70
0E60
07E0
03C0
0380
0180
1FF8
1FF8
0180
0180
0180
0180
ENDCHAR
STARTCHAR uni04B1
ENCODING 1201
SWIDTH 500 0
DWIDTH 12 0
BBX 12 17 0 -5
BITMAP
E070
6060
6060
30C0
30C0
1880
1980
0980
0D00
0F00
0600
0600
3FC0
3FC0
0600
0600
0600
ENDCHAR
STARTCHAR uni04B2
ENCODING 1202
SWIDTH 629 0
DWIDTH 15 0
BBX 15 21 0 -4
BITMAP
E01C
7018
3838
1870
1C60
0EE0
07C0
0780
0380
07C0
0EC0
0CE0
1C70
3830
3038
601E
E00E
0006
0006
0006
0006
ENDCHAR
STARTCHAR uni04B3
ENCODING 1203
SWIDTH 526 0
DWIDTH 13 0
BBX 13 16 0 -4
BITMAP
7070
30E0
39C0
1D80
0F00
0700
0F00
1D80
19C0
30E0
7078
6078
8018
0018
0018
0018
ENDCHAR
STARTCHAR uni04B6
ENCODING 1206
SWIDTH 675 0
DWIDTH 16 0
BBX 15 21 1 -4
BITMAP
C018
C018
C018
C018
C018
C018
E018
7038
7FF8
1FD8
0018
0018
0018
0018
0018
001E
001E
0006
0006
0006
0006
ENDCHAR
STARTCHAR uni04B7
ENCODING 1207
SWIDTH 545 0
DWIDTH 13 0
BBX 12 16 1 -4
BITMAP
C0C0
C0C0
C0C0
C0C0
C0C0
E0C0
7FC0
3EC0
00C0
00C0
00F0
00F0
0030
0030
0030
0030
ENDCHAR
STARTCHAR uni04B8
ENCODING 1208
SWIDTH 658 0
DWIDTH 16 0
BBX 13 17 1 0
BITMAP
C018
C018
C018
C018
C218
C218
E218
7238
7FF8
1FD8
0218
0218
0218
0218
0018
0018
0018
ENDCHAR
STARTCHAR uni04B9
ENCODING 1209
SWIDTH 523 0
DWIDTH 13 0
BBX 10 12 1 0
BITMAP
C0C0
C0C0
C0C0
CCC0
CCC0
ECC0
7FC0
3EC0
0CC0
0CC0
0CC0
00C0
ENDCHAR
STARTCHAR uni04BA
ENCODING 1210
SWIDTH 665 0
DWIDTH 16 0
BBX 13 17 2 0
BITMAP
C000
C000
C000
C000
C000
C000
DFC0
FFE0
E070
C030
C038
C038
C038
C038
C038
C038
C038
ENDCHAR
STARTCHAR uni04BB
ENCODING 1211
SWIDTH 556 0
DWIDTH 13 0
BBX 10 17 2 0
BITMAP
C000
C000
C000
C000
DF00
FF80
E1C0
C0C0
C0C0
C0C0
C0C0
C0C0
C0C0
C0C0
C0C0
C0C0
C0C0
ENDCHAR
STARTCHAR uni04C0
ENCODING 1216
SWIDTH 259 0
DWIDTH 6 0
BBX 2 17 2 0
BITMAP
C0
C0
C0
C0
C0
C0
C0
C0
C0
C0
C0
C0
C0
C0
C0
C0
C0
ENDCHAR
STARTCHAR uni04C1
ENCODING 1217
SWIDTH 1011 0
DWIDTH 24 0
BBX 24 21 0 0
BITMAP
00C300
007E00
003C00
000000
70180F
38181C
1C1838
0E1870
0718E0
0399C0
01D980
01FB80
03FFC0
033CE0
071860
0E1870
1C1838
18181C
38180C
70180E
E01807
ENDCHAR
STARTCHAR uni04C2
ENCODING 1218
SWIDTH 783 0
DWIDTH 19 0
BBX 19 17 0 0
BITMAP
031800
03F000
01E000
000000
000000
70C1C0
38C300
1CC600
0ECC00
07DC00
07FC00
0DFE00
1CE600
18C300
30C380
70C1C0
E0C0E0
ENDCHAR
STARTCHAR uni04D0
ENCODING 1232
SWIDTH 648 0
DWIDTH 16 0
BBX 16 21 0 0
BITMAP
0C20
07E0
03C0
0000
0380
03C0
07C0
06C0
0660
0C60
0C70
0C30
1830
1838
3FF8
3FFC
300C
700C
600E
E006
C007
ENDCHAR
STARTCHAR uni04D1
ENCODING 1233
SWIDTH 537 0
DWIDTH 13 0
BBX 12 17 1 0
BITMAP
3180
1F80
0F00
0000
1F00
7FC0
60C0
C0C0
00C0
03C0
3EC0
E0C0
C0C0
C0C0
E1C0
FFF0
3C70
ENDCHAR
STARTCHAR uni04D2
ENCODING 1234
SWIDTH 648 0
DWIDTH 16 0
BBX 16 21 0 0
BITMAP
0E60
0E60
0E60
0000
0380
03C0
07C0
06C0
0660
0C60
0C70
0C30
1830
1838
3FF8
3FFC
300C
700C
600E
E006
C007
ENDCHAR
STARTCHAR uni04D3
ENCODING 1235
SWIDTH 537 0
DWIDTH 13 0
BBX 12 17 1 0
BITMAP
3180
3180
3180
0000
1F00
7FC0
60C0
C0C0
00C0
03C0
3EC0
E0C0
C0C0
C0C0
E1C0
FFF0
3C70
ENDCHAR
STARTCHAR uni04D4
ENCODING 1236
SWIDTH 926 0
DWIDTH 22 0
BBX 21 17 0 0
BITMAP
00FFF8
00FFF8
01D800
019800
039800
031800
071800
061FF8
0E1FF8
0C1800
1FF800
1FF800
381800
301800
701800
601FF8
E01FF8
ENDCHAR
STARTCHAR uni04D5
ENCODING 1237
SWIDTH 870 0
DWIDTH 21 0
BBX 19 13 1 0
BITMAP
1F1F00
7FFF80
60F1C0
C0E0E0
00C060
03C060
3FFFE0
FEFFE0
C0C000
C0E060
E1F0E0
FFBFC0
3E1F00
ENDCHAR
STARTCHAR uni04D6
ENCODING 1238
SWIDTH 611 0
DWIDTH 15 0
BBX 12 21 2 0
BITMAP
30C0
1F80
0F00
0000
FFF0
FFF0
C000
C000
C000
C000
C000
FFE0
FFE0
C000
C000
C000
C000
C000
C000
FFF0
FFF0
ENDCHAR
STARTCHAR uni04D7
ENCODING 1239
SWIDTH 537 0
DWIDTH 13 0
BBX 11 17 1 0
BITMAP
3180
1F80
0F00
0000
1F00
3F80
71C0
E0E0
C060
C060
FFE0
FFE0
C000
C060
70E0
3FC0
1F00
ENDCHAR
STARTCHAR uni04D8
ENCODING 1240
SWIDTH 743 0
DWIDTH 18 0
BBX 16 18 1 0
BITMAP
07E0
1FF0
783C
700C
E00E
0006
0007
0007
FFFF
FFFF
C003
C007
E006
6006
700C
383C
1FF8
07E0
ENDCHAR
STARTCHAR afii10846
ENCODING 1241
SWIDTH 547 0
DWIDTH 13 0
BBX 11 13 1 0
BITMAP
1F00
7F80
61C0
C0E0
0060
0060
FFE0
FFE0
C060
C060
70C0
3F80
1F00
ENDCHAR
STARTCHAR uni04DC
ENCODING 1244
SWIDTH 1011 0
DWIDTH 24 0
BBX 24 21 0 0
BITMAP
006600
006600
006600
000000
70180F
38181C
1C1838
0E1870
0718E0
0399C0
01D980
01FB80
03FFC0
033CE0
071860
0E1870
1C1838
18181C
38180C
70180E
E01807
ENDCHAR
STARTCHAR uni04DD
ENCODING 1245
SWIDTH 783 0
DWIDTH 19 0
BBX 19 17 0 0
BITMAP
031800
031800
031800
000000
000000
70C1C0
38C300
1CC600
0ECC00
07DC00
07FC00
0DFE00
1CE600
18C300
30C380
70C1C0
E0C0E0
ENDCHAR
STARTCHAR uni04DE
ENCODING 1246
SWIDTH 654 0
DWIDTH 16 0
BBX 14 21 1 0
BITMAP
0CC0
0CC0
0CC0
0FC0
3FF0
7870
6038
6018
0018
0038
0070
07E0
07F0
0038
0018
C01C
C01C
E018
7038
3FF0
0FC0
ENDCHAR
STARTCHAR uni04DF
ENCODING 1247
SWIDTH 506 0
DWIDTH 12 0
BBX 10 17 1 0
BITMAP
3300
3300
3300
0000
3F00
7F80
E1C0
C0C0
00C0
0180
0F00
0F80
00C0
C0C0
E1C0
7F80
3F00
ENDCHAR
STARTCHAR uni04E2
ENCODING 1250
SWIDTH 730 0
DWIDTH 18 0
BBX 14 20 2 0
BITMAP
1FE0
0000
0000
C03C
C03C
C07C
C07C
C0DC
C1DC
C19C
C31C
C31C
C61C
CE1C
CC1C
D81C
D81C
F01C
F01C
E01C
ENDCHAR
STARTCHAR uni04E3
ENCODING 1251
SWIDTH 566 0
DWIDTH 14 0
BBX 10 16 2 0
BITMAP
7F80
0000
0000
0000
C1C0
C3C0
C3C0
C6C0
C6C0
CCC0
D8C0
D8C0
F0C0
F0C0
E0C0
C0C0
ENDCHAR
STARTCHAR uni04E4
ENCODING 1252
SWIDTH 730 0
DWIDTH 18 0
BBX 14 21 2 0
BITMAP
1CC0
1CC0
1CC0
0000
C03C
C03C
C07C
C07C
C0DC
C1DC
C19C
C31C
C31C
C61C
CE1C
CC1C
D81C
D81C
F01C
F01C
E01C
ENDCHAR
STARTCHAR uni04E5
ENCODING 1253
SWIDTH 566 0
DWIDTH 14 0
BBX 10 17 2 0
BITMAP
7300
7300
7300
0000
0000
C1C0
C3C0
C3C0
C6C0
C6C0
CCC0
D8C0
D8C0
F0C0
F0C0
E0C0
C0C0
ENDCHAR
STARTCHAR uni04E6
ENCODING 1254
SWIDTH 760 0
DWIDTH 18 0
BBX 16 21 1 0
BITMAP
0660
0660
0660
07E0
1FF8
3C3C
700E
6006
E007
E003
C003
C003
C003
C003
E003
E007
6006
700E
3C3C
1FF8
07E0
ENDCHAR
STARTCHAR uni04E7
ENCODING 1255
SWIDTH 574 0
DWIDTH 14 0
BBX 12 17 1 0
BITMAP
1980
1980
1980
0000
1F00
3FC0
70E0
E060
C070
C030
C030
C030
C070
E060
70E0
3FC0
1F00
ENDCHAR
STARTCHAR uni04E8
ENCODING 1256
SWIDTH 760 0
DWIDTH 18 0
BBX 16 18 1 0
BITMAP
07E0
1FF8
3C3C
700E
6006
E007
E003
C003
FFFF
FFFF
C003
C003
E007
6006
700E
3C1C
1FF8
07E0
ENDCHAR
STARTCHAR uni04E9
ENCODING 1257
SWIDTH 574 0
DWIDTH 14 0
BBX 12 13 1 0
BITMAP
1F00
3FC0
70E0
E060
E070
C030
FFF0
FFF0
C030
E060
70E0
3FC0
1F00
ENDCHAR
STARTCHAR uni04EE
ENCODING 1262
SWIDTH 611 0
DWIDTH 15 0
BBX 15 20 0 0
BITMAP
1FE0
0000
0000
E00E
601C
3018
3038
3830
1870
1C60
0C60
0EC0
06C0
0780
0380
0300
0700
0600
7E00
7800
ENDCHAR
STARTCHAR uni04EF
ENCODING 1263
SWIDTH 500 0
DWIDTH 12 0
BBX 12 21 0 -5
BITMAP
3FC0
0000
0000
E030
6060
6060
7060
30C0
30C0
18C0
1980
1980
0D00
0F00
0700
0600
0600
0C00
0C00
7800
7800
ENDCHAR
STARTCHAR uni04F0
ENCODING 1264
SWIDTH 611 0
DWIDTH 15 0
BBX 15 21 0 0
BITMAP
0CE0
0CE0
0CE0
0000
E00E
601C
3018
3038
3830
1870
1C60
0C60
0EC0
06C0
0780
0380
0300
0700
0600
7E00
7800
ENDCHAR
STARTCHAR uni04F1
ENCODING 1265
SWIDTH 500 0
DWIDTH 12 0
BBX 12 22 0 -5
BITMAP
1980
1980
1980
0000
E030
6060
6060
7060
30C0
30C0
18C0
1980
1980
0D00
0F00
0700
0600
0600
0C00
0C00
7800
7800
ENDCHAR
STARTCHAR uni04F2
ENCODING 1266
SWIDTH 611 0
DWIDTH 15 0
BBX 15 22 0 0
BITMAP
03B8
0660
04C0
0800
0000
E00E
601C
3018
3038
3830
1870
1C60
0C60
0EC0
06C0
0780
0380
0300
0700
0600
7E00
7800
ENDCHAR
STARTCHAR uni04F3
ENCODING 1267
SWIDTH 500 0
DWIDTH 12 0
BBX 12 22 0 -5
BITMAP
06E0
0CC0
1980
0000
E030
6060
6060
7060
30C0
30C0
18C0
1980
1980
0D00
0F00
0700
0600
0600
0C00
0C00
7800
7800
ENDCHAR
STARTCHAR uni04F4
ENCODING 1268
SWIDTH 658 0
DWIDTH 16 0
BBX 13 21 1 0
BITMAP
0CC0
0CC0
0CC0
C018
C018
C018
C018
C018
C018
C018
E018
7038
7FF8
1FD8
0018
0018
0018
0018
0018
0018
0018
ENDCHAR
STARTCHAR uni04F5
ENCODING 1269
SWIDTH 523 0
DWIDTH 13 0
BBX 10 17 1 0
BITMAP
3380
3380
3380
0000
0000
C0C0
C0C0
C0C0
C0C0
C0C0
E0C0
7FC0
3EC0
00C0
00C0
00C0
00C0
ENDCHAR
STARTCHAR uni04F8
ENCODING 1272
SWIDTH 877 0
DWIDTH 21 0
BBX 17 21 2 0
BITMAP
063000
063000
063000
000000
C00180
C00180
C00180
C00180
C00180
C00180
C00180
FFC180
FFE180
C07180
C03180
C03180
C03980
C03180
C07180
FFE180
FFC180
ENDCHAR
STARTCHAR uni04F9
ENCODING 1273
SWIDTH 708 0
DWIDTH 17 0
BBX 13 17 2 0
BITMAP
18C0
18C0
18C0
0000
C000
C018
C018
C018
C018
FF18
FF98
C198
C198
C198
C198
FF98
FF18
ENDCHAR
STARTCHAR endash
ENCODING 8211
SWIDTH 500 0
DWIDTH 12 0
BBX 12 2 0 6
BITMAP
FFF0
FFF0
ENDCHAR
STARTCHAR emdash
ENCODING 8212
SWIDTH 1000 0
DWIDTH 24 0
BBX 18 2 3 6
BITMAP
FFFFC0
FFFFC0
ENDCHAR
STARTCHAR quoteleft
ENCODING 8216
SWIDTH 278 0
DWIDTH 7 0
BBX 3 6 2 11
BITMAP
60
C0
80
E0
E0
E0
ENDCHAR
STARTCHAR quoteright
ENCODING 8217
SWIDTH 278 0
DWIDTH 7 0
BBX 3 6 2 11
BITMAP
E0
E0
E0
60
40
C0
ENDCHAR
STARTCHAR quotesinglbase
ENCODING 8218
SWIDTH 278 0
DWIDTH 7 0
BBX 3 7 2 -4
BITMAP
E0
E0
E0
60
60
C0
80
ENDCHAR
STARTCHAR quotedblleft
ENCODING 8220
SWIDTH 426 0
DWIDTH 10 0
BBX 7 6 2 11
BITMAP
46
8C
88
CE
CE
CE
ENDCHAR
STARTCHAR quotedblright
ENCODING 8221
SWIDTH 426 0
DWIDTH 10 0
BBX 7 6 2 11
BITMAP
CE
CE
CE
46
44
8C
ENDCHAR
STARTCHAR quotedblbase
ENCODING 8222
SWIDTH 426 0
DWIDTH 10 0
BBX 7 6 2 -3
BITMAP
CE
CE
CE
46
44
88
ENDCHAR
STARTCHAR dagger
ENCODING 8224
SWIDTH 556 0
DWIDTH 13 0
BBX 11 21 1 -4
BITMAP
0600
0600
0600
0600
FFE0
FFE0
0600
0600
0600
0600
0600
0600
0600
0600
0600
0600
0600
0600
0600
0600
0600
ENDCHAR
STARTCHAR daggerdbl
ENCODING 8225
SWIDTH 556 0
DWIDTH 13 0
BBX 11 21 1 -4
BITMAP
0600
0600
0600
0600
FFE0
FFE0
0600
0600
0600
0600
0600
0600
0600
0600
FFE0
FFE0
0600
0600
0600
0600
0600
ENDCHAR
STARTCHAR bullet
ENCODING 8226
SWIDTH 500 0
DWIDTH 12 0
BBX 8 9 2 4
BITMAP
3C
7E
FF
FF
FF
FF
FF
7E
3C
ENDCHAR
STARTCHAR ellipsis
ENCODING 8230
SWIDTH 1000 0
DWIDTH 24 0
BBX 18 3 3 0
BITMAP
C0C0C0
C0C0C0
C0C0C0
ENDCHAR
STARTCHAR perthousand
ENCODING 8240
SWIDTH 1148 0
DWIDTH 28 0
BBX 24 18 2 -1
BITMAP
780600
CC0C00
C61800
C61800
C63000
C66000
CCC000
78C000
018000
033C3C
036666
064263
0C4363
18C363
184263
306666
603C3C
E00000
ENDCHAR
STARTCHAR guilsinglleft
ENCODING 8249
SWIDTH 259 0
DWIDTH 6 0
BBX 4 8 1 3
BITMAP
10
30
60
C0
C0
60
30
10
ENDCHAR
STARTCHAR guilsinglright
ENCODING 8250
SWIDTH 259 0
DWIDTH 6 0
BBX 4 8 1 3
BITMAP
80
C0
60
30
30
60
C0
80
ENDCHAR
STARTCHAR fraction
ENCODING 8260
SWIDTH 167 0
DWIDTH 4 0
BBX 12 18 -4 -1
BITMAP
0030
0020
0060
00C0
0080
0180
0100
0300
0200
0600
0C00
0800
1800
1000
3000
6000
4000
C000
ENDCHAR
STARTCHAR Euro
ENCODING 8364
SWIDTH 556 0
DWIDTH 13 0
BBX 13 17 0 0
BITMAP
03E0
07F8
0E18
1C10
1800
3800
7FE0
B000
3000
7FC0
B800
3800
1800
1C08
0E18
07F8
03F0
ENDCHAR
STARTCHAR afii61352
ENCODING 8470
SWIDTH 1035 0
DWIDTH 25 0
BBX 21 17 2 0
BITMAP
E03800
E03800
F03800
F03800
F838F0
DC3998
CC3B08
CE3B08
C63998
C738F0
C3B800
C1B800
C1F9F8
C0F9F8
C07800
C07800
C03800
ENDCHAR
STARTCHAR trademark
ENCODING 8482
SWIDTH 990 0
DWIDTH 24 0
BBX 20 10 2 7
BITMAP
FE7030
107870
107850
1068D0
106C90
106490
106590
106710
106310
106310
ENDCHAR
STARTCHAR Omega
ENCODING 8486
SWIDTH 740 0
DWIDTH 18 0
BBX 16 17 1 0
BITMAP
07E0
1FF8
383C
700E
6006
E006
E007
C007
E006
6006
600E
301C
1C78
0460
0460
FC7F
FC7F
ENDCHAR
STARTCHAR partialdiff
ENCODING 8706
SWIDTH 534 0
DWIDTH 13 0
BBX 11 17 1 0
BITMAP
3E00
7F00
6380
01C0
00C0
00C0
00C0
3EE0
7FE0
E1E0
C0C0
C0C0
C0C0
C0C0
6180
7F80
1E00
ENDCHAR
STARTCHAR Delta
ENCODING 8710
SWIDTH 648 0
DWIDTH 16 0
BBX 16 17 0 0
BITMAP
0380
03C0
02C0
06C0
0660
0C60
0C70
0C30
1830
1838
3818
301C
300C
600C
600E
FFFE
FFFF
ENDCHAR
STARTCHAR product
ENCODING 8719
SWIDTH 750 0
DWIDTH 18 0
BBX 14 24 2 -5
BITMAP
FFFC
FFFC
C00C
C00C
C00C
C00C
C00C
C00C
C00C
C00C
C00C
C00C
C00C
C00C
C00C
C00C
C00C
C00C
C00C
C00C
C00C
C00C
C00C
C00C
ENDCHAR
STARTCHAR summation
ENCODING 8721
SWIDTH 576 0
DWIDTH 14 0
BBX 14 24 0 -5
BITMAP
FFFC
FFFC
7000
3000
3800
1C00
0C00
0E00
0700
0380
0180
01C0
01C0
0380
0300
0700
0E00
1C00
1800
3800
7000
6000
FFFC
FFFC
ENDCHAR
STARTCHAR minus
ENCODING 8722
SWIDTH 600 0
DWIDTH 14 0
BBX 12 2 1 5
BITMAP
FFF0
FFF0
ENDCHAR
STARTCHAR radical
ENCODING 8730
SWIDTH 536 0
DWIDTH 13 0
BBX 13 24 0 -5
BITMAP
0018
0038
0030
0030
0030
0030
0060
0060
0060
0060
0060
00C0
00C0
00C0
60C0
F0C0
B180
1980
1980
0D80
0D80
0700
0700
0700
ENDCHAR
STARTCHAR infinity
ENCODING 8734
SWIDTH 744 0
DWIDTH 18 0
BBX 16 8 1 2
BITMAP
781C
FE7E
C7E3
83C3
83C3
C7E3
FE7F
781C
ENDCHAR
STARTCHAR integral
ENCODING 8747
SWIDTH 343 0
DWIDTH 8 0
BBX 8 24 0 -5
BITMAP
0F
1B
1B
18
18
18
18
18
18
18
18
18
18
18
18
18
18
18
18
18
18
18
D0
F0
ENDCHAR
STARTCHAR approxequal
ENCODING 8776
SWIDTH 600 0
DWIDTH 14 0
BBX 13 8 1 2
BITMAP
7818
7F10
C7F0
81E0
7818
7F10
C7F0
81E0
ENDCHAR
STARTCHAR notequal
ENCODING 8800
SWIDTH 600 0
DWIDTH 14 0
BBX 12 14 1 -1
BITMAP
00C0
00C0
0180
FFF0
FFF0
0200
0600
0400
FFF0
FFF0
1800
1800
3000
1000
ENDCHAR
STARTCHAR lessequal
ENCODING 8804
SWIDTH 600 0
DWIDTH 14 0
BBX 12 14 1 -1
BITMAP
0010
00F0
03C0
1F00
F800
E000
7C00
0F80
03E0
0070
0010
0000
FFF0
FFF0
ENDCHAR
STARTCHAR greaterequal
ENCODING 8805
SWIDTH 600 0
DWIDTH 14 0
BBX 12 14 1 -1
BITMAP
C000
F000
3E00
07C0
00F0
0070
01E0
0F80
7C00
E000
8000
0000
FFF0
FFF0
ENDCHAR
STARTCHAR lozenge
ENCODING 9674
SWIDTH 600 0
DWIDTH 14 0
BBX 10 19 2 -1
BITMAP
0C00
0E00
1E00
1B00
3300
3180
6180
6180
E0C0
C0C0
E0C0
6180
6180
3180
3300
1B00
1E00
0E00
0C00
ENDCHAR
STARTCHAR apple
ENCODING 63743
SWIDTH 790 0
DWIDTH 19 0
BBX 17 20 1 -1
BITMAP
001000
003000
007000
006000
1FFE00
7FFF00
7FFE00
7FFE00
FFFC00
FFFC00
FFFC00
FFFE00
7FFE00
7FFF80
7FFF80
3FFF00
3FFF00
1FFE00
1F3C00
0C0000
ENDCHAR
STARTCHAR fi
ENCODING 64257
SWIDTH 518 0
DWIDTH 12 0
BBX 11 17 0 0
BITMAP
0E60
1E60
3860
3000
FE60
FE60
3060
3060
3060
3060
3060
3060
3060
3060
3060
3060
3060
ENDCHAR
STARTCHAR fl
ENCODING 64258
SWIDTH 518 0
DWIDTH 12 0
BBX 11 17 0 0
BITMAP
0E60
1E60
3860
3060
FE60
FE60
3060
3060
3060
3060
3060
3060
3060
3060
3060
3060
3060
ENDCHAR
STARTCHAR .notdef
ENCODING -1
SWIDTH 500 0
DWIDTH 12 0
BBX 10 12 1 0
BITMAP
FFC0
8040
8040
8040
8040
8040
8040
8040
8040
8040
8040
FFC0
ENDCHAR
STARTCHAR .null
ENCODING -1
SWIDTH 0 0
DWIDTH 0 0
BBX 1 1 0 0
BITMAP
00
ENDCHAR
STARTCHAR uniE001
ENCODING -1
SWIDTH 278 0
DWIDTH 7 0
BBX 1 1 0 0
BITMAP
00
ENDCHAR
STARTCHAR FL295
ENCODING -1
SWIDTH 0 0
DWIDTH 0 0
BBX 1 1 0 0
BITMAP
00
ENDCHAR
STARTCHAR cyrbreve
ENCODING -1
SWIDTH 222 0
DWIDTH 5 0
BBX 7 3 -1 14
BITMAP
C6
7E
3C
ENDCHAR
STARTCHAR cyrBreve
ENCODING -1
SWIDTH 222 0
DWIDTH 5 0
BBX 7 3 -1 18
BITMAP
C2
7E
3C
ENDCHAR
ENDFONT
